<svg xmlns="http://www.w3.org/2000/svg" width="1200" height="720" viewBox="0 0 1200 720" role="img" aria-labelledby="title desc">
  <title id="title">Temperature Alarm Circuit</title>
  <desc id="desc">A potentiometer simulates temperature and four LEDs plus a buzzer show the selected zone.</desc>
  <rect width="1200" height="720" fill="#f7fbfd"/>
  <defs>
    <marker id="arrow" markerWidth="12" markerHeight="12" refX="10" refY="6" orient="auto" markerUnits="strokeWidth">
      <path d="M2,2 L10,6 L2,10 Z" fill="#17324d"/>
    </marker>
  </defs>
  <style>
    .title { font: 700 30px Arial, sans-serif; fill: #17324d; }
    .h2 { font: 700 21px Arial, sans-serif; fill: #17324d; }
    .label { font: 600 17px Arial, sans-serif; fill: #17324d; }
    .small { font: 15px Arial, sans-serif; fill: #526d82; }
    .tiny { font: 12px Arial, sans-serif; fill: #526d82; }
    .mono { font: 600 14px Consolas, monospace; fill: #17324d; }
    .panel { fill: #ffffff; stroke: #a8c0cc; stroke-width: 3; }
    .wire { fill: none; stroke-width: 6; stroke-linecap: round; stroke-linejoin: round; }
  </style>
  <text x="48" y="48" class="title">Temperature Alarm Circuit</text>
<rect x="50" y="105" width="245" height="500" rx="24" fill="#cce9f0" stroke="#167187" stroke-width="3"/>
<text x="172.5" y="143" class="h2" text-anchor="middle">Arduino Uno</text>
<rect x="78" y="177" width="78" height="120" rx="12" fill="#255f70" stroke="#17324d" stroke-width="3"/>
<text x="117" y="229" class="tiny" text-anchor="middle">ATmega</text>
<text x="117" y="249" class="tiny" text-anchor="middle">328P</text>
<rect x="83" y="517" width="95" height="52" rx="8" fill="#bccbd3" stroke="#17324d" stroke-width="3"/>
<text x="130" y="549" class="tiny" text-anchor="middle">USB-B</text>
<circle cx="290" cy="183.0" r="8" fill="#d7f3dd" stroke="#17324d" stroke-width="2"/>
<text x="213" y="188.0" class="small" text-anchor="start">A0</text>
<circle cx="290" cy="235.85714285714286" r="8" fill="#fff" stroke="#17324d" stroke-width="2"/>
<text x="213" y="240.85714285714286" class="small" text-anchor="start">D2</text>
<circle cx="290" cy="288.7142857142857" r="8" fill="#fff" stroke="#17324d" stroke-width="2"/>
<text x="213" y="293.7142857142857" class="small" text-anchor="start">D3</text>
<circle cx="290" cy="341.57142857142856" r="8" fill="#fff" stroke="#17324d" stroke-width="2"/>
<text x="213" y="346.57142857142856" class="small" text-anchor="start">D4</text>
<circle cx="290" cy="394.42857142857144" r="8" fill="#fff" stroke="#17324d" stroke-width="2"/>
<text x="213" y="399.42857142857144" class="small" text-anchor="start">D5</text>
<circle cx="290" cy="447.2857142857143" r="8" fill="#fff" stroke="#17324d" stroke-width="2"/>
<text x="213" y="452.2857142857143" class="small" text-anchor="start">D6</text>
<circle cx="290" cy="500.1428571428571" r="8" fill="#f8c5c5" stroke="#17324d" stroke-width="2"/>
<text x="213" y="505.1428571428571" class="small" text-anchor="start">5V</text>
<circle cx="290" cy="553.0" r="8" fill="#263238" stroke="#17324d" stroke-width="2"/>
<text x="213" y="558.0" class="small" text-anchor="start">GND</text>
<rect x="370" y="120" width="280" height="205" rx="18" fill="#ffffff" stroke="#a8c0cc" stroke-width="3"/>
<text x="510.0" y="154" class="h2" text-anchor="middle">Temperature Pot</text>
<circle cx="572" cy="212" r="42" fill="#f2dda1" stroke="#17324d" stroke-width="4"/>
<polyline points="572,212 598,187" class="wire" stroke="#17324d" stroke-width="5"/>
<text x="572" y="274" class="tiny" text-anchor="middle">10k pot</text>
<circle cx="370" cy="186.0" r="7" fill="#f8c5c5" stroke="#17324d" stroke-width="2"/>
<text x="388" y="191.0" class="small" text-anchor="start">5V</text>
<circle cx="370" cy="240.5" r="7" fill="#d7f3dd" stroke="#17324d" stroke-width="2"/>
<text x="388" y="245.5" class="small" text-anchor="start">A0</text>
<circle cx="370" cy="295.0" r="7" fill="#263238" stroke="#17324d" stroke-width="2"/>
<text x="388" y="300.0" class="small" text-anchor="start">GND</text>
<rect x="690" y="120" width="295" height="250" rx="18" fill="#ffffff" stroke="#a8c0cc" stroke-width="3"/>
<text x="837.5" y="154" class="h2" text-anchor="middle">Zone LEDs</text>
<rect x="849" y="174" width="116" height="76" rx="10" fill="#e5eef2" stroke="#17324d" stroke-width="3"/>
<text x="907" y="217" class="label" text-anchor="middle">4 LEDs</text>
<circle cx="690" cy="186.0" r="7" fill="#fff" stroke="#17324d" stroke-width="2"/>
<text x="708" y="191.0" class="small" text-anchor="start">D2</text>
<circle cx="690" cy="224.5" r="7" fill="#fff" stroke="#17324d" stroke-width="2"/>
<text x="708" y="229.5" class="small" text-anchor="start">D3</text>
<circle cx="690" cy="263.0" r="7" fill="#fff" stroke="#17324d" stroke-width="2"/>
<text x="708" y="268.0" class="small" text-anchor="start">D4</text>
<circle cx="690" cy="301.5" r="7" fill="#fff" stroke="#17324d" stroke-width="2"/>
<text x="708" y="306.5" class="small" text-anchor="start">D5</text>
<circle cx="690" cy="340.0" r="7" fill="#263238" stroke="#17324d" stroke-width="2"/>
<text x="708" y="345.0" class="small" text-anchor="start">GND</text>
<rect x="690" y="410" width="295" height="180" rx="18" fill="#ffffff" stroke="#a8c0cc" stroke-width="3"/>
<text x="837.5" y="444" class="h2" text-anchor="middle">Hot Alarm Buzzer</text>
<circle cx="907" cy="502" r="42" fill="#dcd5fa" stroke="#4d3aa3" stroke-width="4"/>
<circle cx="907" cy="502" r="16" fill="#4d3aa3"/>
<polyline points="949,482 972,467" class="wire" stroke="#7556d8" stroke-width="3"/>
<polyline points="955,502 982,502" class="wire" stroke="#7556d8" stroke-width="3"/>
<circle cx="690" cy="476.0" r="7" fill="#fff" stroke="#17324d" stroke-width="2"/>
<text x="708" y="481.0" class="small" text-anchor="start">D6</text>
<circle cx="690" cy="560.0" r="7" fill="#263238" stroke="#17324d" stroke-width="2"/>
<text x="708" y="565.0" class="small" text-anchor="start">GND</text>
<polyline points="290,500.1428571428571 330.0,479.1428571428571 330.0,165.0 370,186.0" class="wire" stroke="#e53935" stroke-width="5"/>
<polyline points="290,183.0 330.0,169.0 330.0,226.5 370,240.5" class="wire" stroke="#2e9d55" stroke-width="5"/>
<text x="338.0" y="192.75" class="tiny" text-anchor="start">0-50 C map</text>
<polyline points="290,553.0 330.0,546.0 330.0,288.0 370,295.0" class="wire" stroke="#263238" stroke-width="5"/>
<polyline points="290,235.85714285714286 490.0,235.85714285714286 490.0,186.0 690,186.0" class="wire" stroke="#2374d8" stroke-width="5"/>
<text x="498.0" y="205.92857142857144" class="tiny" text-anchor="start">cold blue</text>
<polyline points="290,288.7142857142857 490.0,295.7142857142857 490.0,231.5 690,224.5" class="wire" stroke="#2e9d55" stroke-width="5"/>
<text x="498.0" y="258.6071428571429" class="tiny" text-anchor="start">normal green</text>
<polyline points="290,341.57142857142856 490.0,355.57142857142856 490.0,277.0 690,263.0" class="wire" stroke="#f6a800" stroke-width="5"/>
<text x="498.0" y="311.2857142857143" class="tiny" text-anchor="start">warm yellow</text>
<polyline points="290,394.42857142857144 490.0,415.42857142857144 490.0,322.5 690,301.5" class="wire" stroke="#e53935" stroke-width="5"/>
<text x="498.0" y="363.9642857142857" class="tiny" text-anchor="start">hot red</text>
<polyline points="290,553.0 490.0,532.0 490.0,319.0 690,340.0" class="wire" stroke="#263238" stroke-width="5"/>
<polyline points="290,447.2857142857143 490.0,433.2857142857143 490.0,462.0 690,476.0" class="wire" stroke="#7556d8" stroke-width="5"/>
<text x="498.0" y="442.6428571428571" class="tiny" text-anchor="start">hot alarm</text>
<polyline points="290,553.0 490.0,546.0 490.0,553.0 690,560.0" class="wire" stroke="#263238" stroke-width="5"/>
<rect x="850" y="500" width="300" height="114" rx="16" fill="#ffffff" stroke="#a8c0cc" stroke-width="3"/>
<text x="868" y="530" class="h2" text-anchor="start">Key notes</text>
<text x="870" y="562" class="small" text-anchor="start">Practice if / else if / else</text>
<text x="870" y="587" class="small" text-anchor="start">map(A0, 0, 1023, 0, 50)</text>
<text x="870" y="612" class="small" text-anchor="start">Buzzer only in hot zone</text>
  <text x="48" y="694" class="small">Pins match arduino/02_temperature_alarm.</text>
</svg>
