<svg xmlns="http://www.w3.org/2000/svg" width="1200" height="720" viewBox="0 0 1200 720" role="img" aria-labelledby="title desc">
  <title id="title">Password Lock Circuit</title>
  <desc id="desc">Serial Monitor input checks a password, then LEDs, buzzer, and servo show the lock state.</desc>
  <rect width="1200" height="720" fill="#f7fbfd"/>
  <defs>
    <marker id="arrow" markerWidth="12" markerHeight="12" refX="10" refY="6" orient="auto" markerUnits="strokeWidth">
      <path d="M2,2 L10,6 L2,10 Z" fill="#17324d"/>
    </marker>
  </defs>
  <style>
    .title { font: 700 30px Arial, sans-serif; fill: #17324d; }
    .h2 { font: 700 21px Arial, sans-serif; fill: #17324d; }
    .label { font: 600 17px Arial, sans-serif; fill: #17324d; }
    .small { font: 15px Arial, sans-serif; fill: #526d82; }
    .tiny { font: 12px Arial, sans-serif; fill: #526d82; }
    .mono { font: 600 14px Consolas, monospace; fill: #17324d; }
    .panel { fill: #ffffff; stroke: #a8c0cc; stroke-width: 3; }
    .wire { fill: none; stroke-width: 6; stroke-linecap: round; stroke-linejoin: round; }
  </style>
  <text x="48" y="48" class="title">Password Lock Circuit</text>
<rect x="50" y="105" width="245" height="500" rx="24" fill="#cce9f0" stroke="#167187" stroke-width="3"/>
<text x="172.5" y="143" class="h2" text-anchor="middle">Arduino Uno</text>
<rect x="78" y="177" width="78" height="120" rx="12" fill="#255f70" stroke="#17324d" stroke-width="3"/>
<text x="117" y="229" class="tiny" text-anchor="middle">ATmega</text>
<text x="117" y="249" class="tiny" text-anchor="middle">328P</text>
<rect x="83" y="517" width="95" height="52" rx="8" fill="#bccbd3" stroke="#17324d" stroke-width="3"/>
<text x="130" y="549" class="tiny" text-anchor="middle">USB-B</text>
<circle cx="290" cy="183.0" r="8" fill="#fff" stroke="#17324d" stroke-width="2"/>
<text x="213" y="188.0" class="small" text-anchor="start">D3</text>
<circle cx="290" cy="257.0" r="8" fill="#fff" stroke="#17324d" stroke-width="2"/>
<text x="213" y="262.0" class="small" text-anchor="start">D4</text>
<circle cx="290" cy="331.0" r="8" fill="#fff" stroke="#17324d" stroke-width="2"/>
<text x="213" y="336.0" class="small" text-anchor="start">D5</text>
<circle cx="290" cy="405.0" r="8" fill="#fff" stroke="#17324d" stroke-width="2"/>
<text x="213" y="410.0" class="small" text-anchor="start">D9</text>
<circle cx="290" cy="479.0" r="8" fill="#f8c5c5" stroke="#17324d" stroke-width="2"/>
<text x="213" y="484.0" class="small" text-anchor="start">5V</text>
<circle cx="290" cy="553.0" r="8" fill="#263238" stroke="#17324d" stroke-width="2"/>
<text x="213" y="558.0" class="small" text-anchor="start">GND</text>
<rect x="365" y="100" width="260" height="165" rx="18" fill="#ffffff" stroke="#a8c0cc" stroke-width="3"/>
<text x="495.0" y="134" class="h2" text-anchor="middle">Serial Monitor</text>
<rect x="479" y="150" width="136" height="84" rx="8" fill="#edf2f7" stroke="#17324d" stroke-width="3"/>
<text x="547" y="186" class="label" text-anchor="middle">Serial</text>
<text x="547" y="212" class="label" text-anchor="middle">Monitor</text>
<circle cx="365" cy="166.0" r="7" fill="#fff" stroke="#17324d" stroke-width="2"/>
<text x="383" y="171.0" class="small" text-anchor="start">USB</text>
<rect x="655" y="100" width="245" height="175" rx="18" fill="#ffffff" stroke="#a8c0cc" stroke-width="3"/>
<text x="777.5" y="134" class="h2" text-anchor="middle">Access LED</text>

  <path d="M796,194 Q822,148 848,194 Z" fill="#2e9d55" stroke="#17324d" stroke-width="3"/>
  <line x1="796" y1="194" x2="796" y2="250" stroke="#17324d" stroke-width="4"/>
  <line x1="848" y1="194" x2="848" y2="250" stroke="#17324d" stroke-width="4"/>
  <text x="822" y="141" class="tiny" text-anchor="middle"></text>


  <line x1="705" y1="233" x2="747" y2="233" stroke="#17324d" stroke-width="4"/>
  <rect x="747" y="217" width="112" height="32" rx="8" fill="#f2dda1" stroke="#795f22" stroke-width="3"/>
  <line x1="859" y1="233" x2="901" y2="233" stroke="#17324d" stroke-width="4"/>
  <text x="803" y="208" class="tiny" text-anchor="middle">330 ohm</text>

<circle cx="655" cy="166.0" r="7" fill="#fff" stroke="#17324d" stroke-width="2"/>
<text x="673" y="171.0" class="small" text-anchor="start">D3</text>
<circle cx="655" cy="245.0" r="7" fill="#263238" stroke="#17324d" stroke-width="2"/>
<text x="673" y="250.0" class="small" text-anchor="start">GND</text>
<rect x="655" y="305" width="245" height="175" rx="18" fill="#ffffff" stroke="#a8c0cc" stroke-width="3"/>
<text x="777.5" y="339" class="h2" text-anchor="middle">Denied LED</text>

  <path d="M796,399 Q822,353 848,399 Z" fill="#e53935" stroke="#17324d" stroke-width="3"/>
  <line x1="796" y1="399" x2="796" y2="455" stroke="#17324d" stroke-width="4"/>
  <line x1="848" y1="399" x2="848" y2="455" stroke="#17324d" stroke-width="4"/>
  <text x="822" y="346" class="tiny" text-anchor="middle"></text>


  <line x1="705" y1="438" x2="747" y2="438" stroke="#17324d" stroke-width="4"/>
  <rect x="747" y="422" width="112" height="32" rx="8" fill="#f2dda1" stroke="#795f22" stroke-width="3"/>
  <line x1="859" y1="438" x2="901" y2="438" stroke="#17324d" stroke-width="4"/>
  <text x="803" y="413" class="tiny" text-anchor="middle">330 ohm</text>

<circle cx="655" cy="371.0" r="7" fill="#fff" stroke="#17324d" stroke-width="2"/>
<text x="673" y="376.0" class="small" text-anchor="start">D4</text>
<circle cx="655" cy="450.0" r="7" fill="#263238" stroke="#17324d" stroke-width="2"/>
<text x="673" y="455.0" class="small" text-anchor="start">GND</text>
<rect x="925" y="100" width="220" height="175" rx="18" fill="#ffffff" stroke="#a8c0cc" stroke-width="3"/>
<text x="1035.0" y="134" class="h2" text-anchor="middle">Buzzer</text>
<circle cx="1067" cy="192" r="42" fill="#dcd5fa" stroke="#4d3aa3" stroke-width="4"/>
<circle cx="1067" cy="192" r="16" fill="#4d3aa3"/>
<polyline points="1109,172 1132,157" class="wire" stroke="#7556d8" stroke-width="3"/>
<polyline points="1115,192 1142,192" class="wire" stroke="#7556d8" stroke-width="3"/>
<circle cx="925" cy="166.0" r="7" fill="#fff" stroke="#17324d" stroke-width="2"/>
<text x="943" y="171.0" class="small" text-anchor="start">D5</text>
<circle cx="925" cy="245.0" r="7" fill="#263238" stroke="#17324d" stroke-width="2"/>
<text x="943" y="250.0" class="small" text-anchor="start">GND</text>
<rect x="925" y="325" width="220" height="205" rx="18" fill="#ffffff" stroke="#a8c0cc" stroke-width="3"/>
<text x="1035.0" y="359" class="h2" text-anchor="middle">Lock Servo</text>
<rect x="1009" y="379" width="116" height="76" rx="10" fill="#4aa3d8" stroke="#17324d" stroke-width="3"/>
<circle cx="1067" cy="417" r="24" fill="#d9e4ea" stroke="#17324d" stroke-width="3"/>
<polyline points="1067,417 1125,385" class="wire" stroke="#17324d" stroke-width="7"/>
<circle cx="925" cy="391.0" r="7" fill="#fff" stroke="#17324d" stroke-width="2"/>
<text x="943" y="396.0" class="small" text-anchor="start">SIGNAL</text>
<circle cx="925" cy="445.5" r="7" fill="#f8c5c5" stroke="#17324d" stroke-width="2"/>
<text x="943" y="450.5" class="small" text-anchor="start">5V</text>
<circle cx="925" cy="500.0" r="7" fill="#263238" stroke="#17324d" stroke-width="2"/>
<text x="943" y="505.0" class="small" text-anchor="start">GND</text>
<polyline points="290,183.0 472.5,162.0 472.5,145.0 655,166.0" class="wire" stroke="#2e9d55" stroke-width="5"/>
<text x="480.5" y="148.5" class="tiny" text-anchor="start">granted</text>
<polyline points="290,553.0 472.5,539.0 472.5,231.0 655,245.0" class="wire" stroke="#263238" stroke-width="5"/>
<polyline points="290,257.0 472.5,250.0 472.5,364.0 655,371.0" class="wire" stroke="#e53935" stroke-width="5"/>
<text x="480.5" y="302.0" class="tiny" text-anchor="start">denied</text>
<polyline points="290,553.0 472.5,553.0 472.5,450.0 655,450.0" class="wire" stroke="#263238" stroke-width="5"/>
<polyline points="290,331.0 607.5,338.0 607.5,173.0 925,166.0" class="wire" stroke="#7556d8" stroke-width="5"/>
<text x="615.5" y="250.5" class="tiny" text-anchor="start">tones</text>
<polyline points="290,553.0 607.5,567.0 607.5,259.0 925,245.0" class="wire" stroke="#263238" stroke-width="5"/>
<polyline points="290,405.0 607.5,426.0 607.5,412.0 925,391.0" class="wire" stroke="#ef7d19" stroke-width="5"/>
<text x="615.5" y="414.0" class="tiny" text-anchor="start">unlock</text>
<polyline points="290,479.0 607.5,458.0 607.5,424.5 925,445.5" class="wire" stroke="#e53935" stroke-width="5"/>
<polyline points="290,553.0 607.5,539.0 607.5,486.0 925,500.0" class="wire" stroke="#263238" stroke-width="5"/>
<rect x="850" y="500" width="300" height="114" rx="16" fill="#ffffff" stroke="#a8c0cc" stroke-width="3"/>
<text x="868" y="530" class="h2" text-anchor="start">Key notes</text>
<text x="870" y="562" class="small" text-anchor="start">Password is checked character by character</text>
<text x="870" y="587" class="small" text-anchor="start">3 failures trigger lockout</text>
<text x="870" y="612" class="small" text-anchor="start">Servo opens for correct code</text>
  <text x="48" y="694" class="small">Pins match arduino/05_password_lock.</text>
</svg>
