<svg xmlns="http://www.w3.org/2000/svg" width="1200" height="720" viewBox="0 0 1200 720" role="img" aria-labelledby="title desc">
  <title id="title">Debug Challenge Smart Nightlight</title>
  <desc id="desc">The buggy program should read an LDR, fade a PWM LED, and use a button override.</desc>
  <rect width="1200" height="720" fill="#f7fbfd"/>
  <defs>
    <marker id="arrow" markerWidth="12" markerHeight="12" refX="10" refY="6" orient="auto" markerUnits="strokeWidth">
      <path d="M2,2 L10,6 L2,10 Z" fill="#17324d"/>
    </marker>
  </defs>
  <style>
    .title { font: 700 30px Arial, sans-serif; fill: #17324d; }
    .h2 { font: 700 21px Arial, sans-serif; fill: #17324d; }
    .label { font: 600 17px Arial, sans-serif; fill: #17324d; }
    .small { font: 15px Arial, sans-serif; fill: #526d82; }
    .tiny { font: 12px Arial, sans-serif; fill: #526d82; }
    .mono { font: 600 14px Consolas, monospace; fill: #17324d; }
    .panel { fill: #ffffff; stroke: #a8c0cc; stroke-width: 3; }
    .wire { fill: none; stroke-width: 6; stroke-linecap: round; stroke-linejoin: round; }
  </style>
  <text x="48" y="48" class="title">Debug Challenge Smart Nightlight</text>
<rect x="50" y="105" width="245" height="500" rx="24" fill="#cce9f0" stroke="#167187" stroke-width="3"/>
<text x="172.5" y="143" class="h2" text-anchor="middle">Arduino Uno</text>
<rect x="78" y="177" width="78" height="120" rx="12" fill="#255f70" stroke="#17324d" stroke-width="3"/>
<text x="117" y="229" class="tiny" text-anchor="middle">ATmega</text>
<text x="117" y="249" class="tiny" text-anchor="middle">328P</text>
<rect x="83" y="517" width="95" height="52" rx="8" fill="#bccbd3" stroke="#17324d" stroke-width="3"/>
<text x="130" y="549" class="tiny" text-anchor="middle">USB-B</text>
<circle cx="290" cy="183.0" r="8" fill="#d7f3dd" stroke="#17324d" stroke-width="2"/>
<text x="213" y="188.0" class="small" text-anchor="start">A0</text>
<circle cx="290" cy="275.5" r="8" fill="#fff" stroke="#17324d" stroke-width="2"/>
<text x="213" y="280.5" class="small" text-anchor="start">D9</text>
<circle cx="290" cy="368.0" r="8" fill="#fff" stroke="#17324d" stroke-width="2"/>
<text x="213" y="373.0" class="small" text-anchor="start">D2</text>
<circle cx="290" cy="460.5" r="8" fill="#f8c5c5" stroke="#17324d" stroke-width="2"/>
<text x="213" y="465.5" class="small" text-anchor="start">5V</text>
<circle cx="290" cy="553.0" r="8" fill="#263238" stroke="#17324d" stroke-width="2"/>
<text x="213" y="558.0" class="small" text-anchor="start">GND</text>
<rect x="390" y="135" width="290" height="215" rx="18" fill="#ffffff" stroke="#a8c0cc" stroke-width="3"/>
<text x="535.0" y="169" class="h2" text-anchor="middle">LDR Divider</text>
<circle cx="602" cy="227" r="42" fill="#f3e6a1" stroke="#17324d" stroke-width="3"/>
<polyline points="546,189 579,212" class="wire" stroke="#f6a800" stroke-width="4" marker-end="url(#arrow)"/>
<polyline points="548,232 580,249" class="wire" stroke="#f6a800" stroke-width="4" marker-end="url(#arrow)"/>
<text x="602" y="233" class="label" text-anchor="middle">LDR</text>
<circle cx="390" cy="201.0" r="7" fill="#f8c5c5" stroke="#17324d" stroke-width="2"/>
<text x="408" y="206.0" class="small" text-anchor="start">5V</text>
<circle cx="390" cy="260.5" r="7" fill="#d7f3dd" stroke="#17324d" stroke-width="2"/>
<text x="408" y="265.5" class="small" text-anchor="start">A0</text>
<circle cx="390" cy="320.0" r="7" fill="#263238" stroke="#17324d" stroke-width="2"/>
<text x="408" y="325.0" class="small" text-anchor="start">GND</text>
<rect x="715" y="135" width="290" height="215" rx="18" fill="#ffffff" stroke="#a8c0cc" stroke-width="3"/>
<text x="860.0" y="169" class="h2" text-anchor="middle">PWM Night LED</text>

  <path d="M901,229 Q927,183 953,229 Z" fill="#f6a800" stroke="#17324d" stroke-width="3"/>
  <line x1="901" y1="229" x2="901" y2="285" stroke="#17324d" stroke-width="4"/>
  <line x1="953" y1="229" x2="953" y2="285" stroke="#17324d" stroke-width="4"/>
  <text x="927" y="176" class="tiny" text-anchor="middle"></text>


  <line x1="765" y1="308" x2="807" y2="308" stroke="#17324d" stroke-width="4"/>
  <rect x="807" y="292" width="112" height="32" rx="8" fill="#f2dda1" stroke="#795f22" stroke-width="3"/>
  <line x1="919" y1="308" x2="961" y2="308" stroke="#17324d" stroke-width="4"/>
  <text x="863" y="283" class="tiny" text-anchor="middle">330 ohm</text>

<circle cx="715" cy="201.0" r="7" fill="#fff" stroke="#17324d" stroke-width="2"/>
<text x="733" y="206.0" class="small" text-anchor="start">D9</text>
<circle cx="715" cy="320.0" r="7" fill="#263238" stroke="#17324d" stroke-width="2"/>
<text x="733" y="325.0" class="small" text-anchor="start">GND</text>
<rect x="550" y="390" width="290" height="195" rx="18" fill="#ffffff" stroke="#a8c0cc" stroke-width="3"/>
<text x="695.0" y="424" class="h2" text-anchor="middle">Override Button</text>
<rect x="712" y="464" width="100" height="48" rx="8" fill="#dce7eb" stroke="#17324d" stroke-width="3"/>
<rect x="734" y="430" width="56" height="28" rx="8" fill="#f5f5f5" stroke="#17324d" stroke-width="3"/>
<polyline points="762,458 762,480" class="wire" stroke="#17324d" stroke-width="7"/>
<circle cx="550" cy="456.0" r="7" fill="#fff" stroke="#17324d" stroke-width="2"/>
<text x="568" y="461.0" class="small" text-anchor="start">D2</text>
<circle cx="550" cy="555.0" r="7" fill="#263238" stroke="#17324d" stroke-width="2"/>
<text x="568" y="560.0" class="small" text-anchor="start">GND</text>
<polyline points="290,460.5 340.0,439.5 340.0,180.0 390,201.0" class="wire" stroke="#e53935" stroke-width="5"/>
<polyline points="290,183.0 340.0,169.0 340.0,246.5 390,260.5" class="wire" stroke="#2e9d55" stroke-width="5"/>
<text x="348.0" y="202.75" class="tiny" text-anchor="start">light level</text>
<polyline points="290,553.0 340.0,546.0 340.0,313.0 390,320.0" class="wire" stroke="#263238" stroke-width="5"/>
<polyline points="290,275.5 502.5,275.5 502.5,201.0 715,201.0" class="wire" stroke="#ef7d19" stroke-width="5"/>
<text x="510.5" y="233.25" class="tiny" text-anchor="start">PWM fade</text>
<polyline points="290,553.0 502.5,560.0 502.5,327.0 715,320.0" class="wire" stroke="#263238" stroke-width="5"/>
<polyline points="290,368.0 420.0,382.0 420.0,470.0 550,456.0" class="wire" stroke="#2374d8" stroke-width="5"/>
<text x="428.0" y="421.0" class="tiny" text-anchor="start">INPUT_PULLUP</text>
<polyline points="290,553.0 420.0,574.0 420.0,576.0 550,555.0" class="wire" stroke="#263238" stroke-width="5"/>
<rect x="850" y="500" width="300" height="114" rx="16" fill="#ffffff" stroke="#a8c0cc" stroke-width="3"/>
<text x="868" y="530" class="h2" text-anchor="start">Key notes</text>
<text x="870" y="562" class="small" text-anchor="start">Find syntax and logic bugs</text>
<text x="870" y="587" class="small" text-anchor="start">Dark should be lightLevel &lt; threshold</text>
<text x="870" y="612" class="small" text-anchor="start">Button pin should be INPUT_PULLUP</text>
  <text x="48" y="694" class="small">Pins match arduino/06_debug_challenge.</text>
</svg>
