<svg xmlns="http://www.w3.org/2000/svg" width="1200" height="720" viewBox="0 0 1200 720" role="img" aria-labelledby="title desc">
  <title id="title">Circuit 6 - Button-Controlled Active Buzzer</title>
  <desc id="desc">A normally open button applies 5 volts to a low-current active buzzer on a breadboard.</desc>
  <rect width="1200" height="720" fill="#f7fbfd"/>
  <style>
    .title { font: 700 30px Arial, sans-serif; fill: #17324d; }
    .h2 { font: 700 21px Arial, sans-serif; fill: #17324d; }
    .label { font: 600 17px Arial, sans-serif; fill: #17324d; }
    .small { font: 15px Arial, sans-serif; fill: #526d82; }
    .tiny { font: 12px Arial, sans-serif; fill: #526d82; }
    .wire { fill: none; stroke-width: 7; stroke-linecap: round; stroke-linejoin: round; }
    .thin { fill: none; stroke: #17324d; stroke-width: 3; }
    .panel { fill: #ffffff; stroke: #a8c0cc; stroke-width: 3; }
  </style>
  <text x="48" y="48" class="title">Circuit 6 - Button-Controlled Active Buzzer</text>

  <rect x="42" y="170" width="175" height="310" rx="20" fill="#dff0f5" stroke="#287b91" stroke-width="4"/>
  <text x="129" y="215" class="h2" text-anchor="middle">5 V SOURCE</text>
  <circle cx="187" cy="275" r="10" fill="#e53935"/>
  <text x="77" y="282" class="label" text-anchor="start">5V</text>
  <circle cx="187" cy="465" r="10" fill="#263238"/>
  <text x="77" y="472" class="label" text-anchor="start">GND</text>
<rect x="260" y="115" width="890" height="500" rx="24" fill="#e9f5f8" stroke="#287b91" stroke-width="4"/>
<line x1="298" y1="173" x2="1112" y2="173" stroke="#e53935" stroke-width="4"/>
<line x1="298" y1="206" x2="1112" y2="206" stroke="#1d70b8" stroke-width="4"/>
<line x1="298" y1="524" x2="1112" y2="524" stroke="#e53935" stroke-width="4"/>
<line x1="298" y1="557" x2="1112" y2="557" stroke="#1d70b8" stroke-width="4"/>
<rect x="298" y="347.0" width="814" height="36" fill="#d9e8ed"/>
<circle cx="355.0" cy="189.0" r="5" fill="#fff" stroke="#78909c" stroke-width="2"/>
<circle cx="355.0" cy="300.0" r="5" fill="#fff" stroke="#78909c" stroke-width="2"/>
<circle cx="355.0" cy="335.0" r="5" fill="#fff" stroke="#78909c" stroke-width="2"/>
<circle cx="355.0" cy="395.0" r="5" fill="#fff" stroke="#78909c" stroke-width="2"/>
<circle cx="355.0" cy="430.0" r="5" fill="#fff" stroke="#78909c" stroke-width="2"/>
<circle cx="355.0" cy="541.0" r="5" fill="#fff" stroke="#78909c" stroke-width="2"/>
<text x="355.0" y="371.0" class="tiny" text-anchor="middle">1</text>
<circle cx="418.6" cy="189.0" r="5" fill="#fff" stroke="#78909c" stroke-width="2"/>
<circle cx="418.6" cy="300.0" r="5" fill="#fff" stroke="#78909c" stroke-width="2"/>
<circle cx="418.6" cy="335.0" r="5" fill="#fff" stroke="#78909c" stroke-width="2"/>
<circle cx="418.6" cy="395.0" r="5" fill="#fff" stroke="#78909c" stroke-width="2"/>
<circle cx="418.6" cy="430.0" r="5" fill="#fff" stroke="#78909c" stroke-width="2"/>
<circle cx="418.6" cy="541.0" r="5" fill="#fff" stroke="#78909c" stroke-width="2"/>
<text x="418.6363636363636" y="371.0" class="tiny" text-anchor="middle">2</text>
<circle cx="482.3" cy="189.0" r="5" fill="#fff" stroke="#78909c" stroke-width="2"/>
<circle cx="482.3" cy="300.0" r="5" fill="#fff" stroke="#78909c" stroke-width="2"/>
<circle cx="482.3" cy="335.0" r="5" fill="#fff" stroke="#78909c" stroke-width="2"/>
<circle cx="482.3" cy="395.0" r="5" fill="#fff" stroke="#78909c" stroke-width="2"/>
<circle cx="482.3" cy="430.0" r="5" fill="#fff" stroke="#78909c" stroke-width="2"/>
<circle cx="482.3" cy="541.0" r="5" fill="#fff" stroke="#78909c" stroke-width="2"/>
<text x="482.27272727272725" y="371.0" class="tiny" text-anchor="middle">3</text>
<circle cx="545.9" cy="189.0" r="5" fill="#fff" stroke="#78909c" stroke-width="2"/>
<circle cx="545.9" cy="300.0" r="5" fill="#fff" stroke="#78909c" stroke-width="2"/>
<circle cx="545.9" cy="335.0" r="5" fill="#fff" stroke="#78909c" stroke-width="2"/>
<circle cx="545.9" cy="395.0" r="5" fill="#fff" stroke="#78909c" stroke-width="2"/>
<circle cx="545.9" cy="430.0" r="5" fill="#fff" stroke="#78909c" stroke-width="2"/>
<circle cx="545.9" cy="541.0" r="5" fill="#fff" stroke="#78909c" stroke-width="2"/>
<text x="545.9090909090909" y="371.0" class="tiny" text-anchor="middle">4</text>
<circle cx="609.5" cy="189.0" r="5" fill="#fff" stroke="#78909c" stroke-width="2"/>
<circle cx="609.5" cy="300.0" r="5" fill="#fff" stroke="#78909c" stroke-width="2"/>
<circle cx="609.5" cy="335.0" r="5" fill="#fff" stroke="#78909c" stroke-width="2"/>
<circle cx="609.5" cy="395.0" r="5" fill="#fff" stroke="#78909c" stroke-width="2"/>
<circle cx="609.5" cy="430.0" r="5" fill="#fff" stroke="#78909c" stroke-width="2"/>
<circle cx="609.5" cy="541.0" r="5" fill="#fff" stroke="#78909c" stroke-width="2"/>
<text x="609.5454545454545" y="371.0" class="tiny" text-anchor="middle">5</text>
<circle cx="673.2" cy="189.0" r="5" fill="#fff" stroke="#78909c" stroke-width="2"/>
<circle cx="673.2" cy="300.0" r="5" fill="#fff" stroke="#78909c" stroke-width="2"/>
<circle cx="673.2" cy="335.0" r="5" fill="#fff" stroke="#78909c" stroke-width="2"/>
<circle cx="673.2" cy="395.0" r="5" fill="#fff" stroke="#78909c" stroke-width="2"/>
<circle cx="673.2" cy="430.0" r="5" fill="#fff" stroke="#78909c" stroke-width="2"/>
<circle cx="673.2" cy="541.0" r="5" fill="#fff" stroke="#78909c" stroke-width="2"/>
<text x="673.1818181818182" y="371.0" class="tiny" text-anchor="middle">6</text>
<circle cx="736.8" cy="189.0" r="5" fill="#fff" stroke="#78909c" stroke-width="2"/>
<circle cx="736.8" cy="300.0" r="5" fill="#fff" stroke="#78909c" stroke-width="2"/>
<circle cx="736.8" cy="335.0" r="5" fill="#fff" stroke="#78909c" stroke-width="2"/>
<circle cx="736.8" cy="395.0" r="5" fill="#fff" stroke="#78909c" stroke-width="2"/>
<circle cx="736.8" cy="430.0" r="5" fill="#fff" stroke="#78909c" stroke-width="2"/>
<circle cx="736.8" cy="541.0" r="5" fill="#fff" stroke="#78909c" stroke-width="2"/>
<text x="736.8181818181818" y="371.0" class="tiny" text-anchor="middle">7</text>
<circle cx="800.5" cy="189.0" r="5" fill="#fff" stroke="#78909c" stroke-width="2"/>
<circle cx="800.5" cy="300.0" r="5" fill="#fff" stroke="#78909c" stroke-width="2"/>
<circle cx="800.5" cy="335.0" r="5" fill="#fff" stroke="#78909c" stroke-width="2"/>
<circle cx="800.5" cy="395.0" r="5" fill="#fff" stroke="#78909c" stroke-width="2"/>
<circle cx="800.5" cy="430.0" r="5" fill="#fff" stroke="#78909c" stroke-width="2"/>
<circle cx="800.5" cy="541.0" r="5" fill="#fff" stroke="#78909c" stroke-width="2"/>
<text x="800.4545454545455" y="371.0" class="tiny" text-anchor="middle">8</text>
<circle cx="864.1" cy="189.0" r="5" fill="#fff" stroke="#78909c" stroke-width="2"/>
<circle cx="864.1" cy="300.0" r="5" fill="#fff" stroke="#78909c" stroke-width="2"/>
<circle cx="864.1" cy="335.0" r="5" fill="#fff" stroke="#78909c" stroke-width="2"/>
<circle cx="864.1" cy="395.0" r="5" fill="#fff" stroke="#78909c" stroke-width="2"/>
<circle cx="864.1" cy="430.0" r="5" fill="#fff" stroke="#78909c" stroke-width="2"/>
<circle cx="864.1" cy="541.0" r="5" fill="#fff" stroke="#78909c" stroke-width="2"/>
<text x="864.090909090909" y="371.0" class="tiny" text-anchor="middle">9</text>
<circle cx="927.7" cy="189.0" r="5" fill="#fff" stroke="#78909c" stroke-width="2"/>
<circle cx="927.7" cy="300.0" r="5" fill="#fff" stroke="#78909c" stroke-width="2"/>
<circle cx="927.7" cy="335.0" r="5" fill="#fff" stroke="#78909c" stroke-width="2"/>
<circle cx="927.7" cy="395.0" r="5" fill="#fff" stroke="#78909c" stroke-width="2"/>
<circle cx="927.7" cy="430.0" r="5" fill="#fff" stroke="#78909c" stroke-width="2"/>
<circle cx="927.7" cy="541.0" r="5" fill="#fff" stroke="#78909c" stroke-width="2"/>
<text x="927.7272727272727" y="371.0" class="tiny" text-anchor="middle">10</text>
<circle cx="991.4" cy="189.0" r="5" fill="#fff" stroke="#78909c" stroke-width="2"/>
<circle cx="991.4" cy="300.0" r="5" fill="#fff" stroke="#78909c" stroke-width="2"/>
<circle cx="991.4" cy="335.0" r="5" fill="#fff" stroke="#78909c" stroke-width="2"/>
<circle cx="991.4" cy="395.0" r="5" fill="#fff" stroke="#78909c" stroke-width="2"/>
<circle cx="991.4" cy="430.0" r="5" fill="#fff" stroke="#78909c" stroke-width="2"/>
<circle cx="991.4" cy="541.0" r="5" fill="#fff" stroke="#78909c" stroke-width="2"/>
<text x="991.3636363636364" y="371.0" class="tiny" text-anchor="middle">11</text>
<circle cx="1055.0" cy="189.0" r="5" fill="#fff" stroke="#78909c" stroke-width="2"/>
<circle cx="1055.0" cy="300.0" r="5" fill="#fff" stroke="#78909c" stroke-width="2"/>
<circle cx="1055.0" cy="335.0" r="5" fill="#fff" stroke="#78909c" stroke-width="2"/>
<circle cx="1055.0" cy="395.0" r="5" fill="#fff" stroke="#78909c" stroke-width="2"/>
<circle cx="1055.0" cy="430.0" r="5" fill="#fff" stroke="#78909c" stroke-width="2"/>
<circle cx="1055.0" cy="541.0" r="5" fill="#fff" stroke="#78909c" stroke-width="2"/>
<text x="1055.0" y="371.0" class="tiny" text-anchor="middle">12</text>
<text x="280" y="179" class="label" text-anchor="start">+</text>
<text x="280" y="213" class="label" text-anchor="start">-</text>
<text x="280" y="531" class="label" text-anchor="start">+</text>
<text x="280" y="564" class="label" text-anchor="start">-</text>
  <rect x="445" y="275" width="110" height="55" rx="8" fill="#dce7eb" stroke="#17324d" stroke-width="3"/>
  <line x1="500" y1="235" x2="500" y2="275" stroke="#17324d" stroke-width="8"/>
  <rect x="472" y="225" width="56" height="28" rx="9" fill="#efefef" stroke="#17324d" stroke-width="3"/>
  <text x="500" y="208" class="small" text-anchor="middle">BUTTON</text>

  <circle cx="760" cy="350" r="55" fill="#dcd5fa" stroke="#4d3aa3" stroke-width="4"/>
  <circle cx="760" cy="350" r="20" fill="#4d3aa3"/>
  <text x="760" y="278" class="small" text-anchor="middle">ACTIVE BUZZER</text>
  <text x="702" y="357" class="label" text-anchor="middle">+</text>
  <text x="818" y="357" class="label" text-anchor="middle">-</text>
<polyline points="187,275 445,275" fill="none" stroke="#e53935" stroke-width="7" stroke-linecap="round" stroke-linejoin="round"/><polyline points="555,275 625,275 625,350 705,350" fill="none" stroke="#7556d8" stroke-width="7" stroke-linecap="round" stroke-linejoin="round"/><polyline points="815,350 890,350 890,465 187,465" fill="none" stroke="#263238" stroke-width="7" stroke-linecap="round" stroke-linejoin="round"/><rect x="925" y="215" width="190" height="210" rx="16" class="panel"/>
<text x="945" y="247" class="h2" text-anchor="start">Check first</text>
<text x="945" y="281" class="small" text-anchor="start">Rated for 5 V</text>
<text x="945" y="309" class="small" text-anchor="start">Observe + and -</text>
<text x="945" y="337" class="small" text-anchor="start">Current below 20 mA</text>
<text x="945" y="365" class="small" text-anchor="start">Released: silent</text>
<text x="945" y="393" class="small" text-anchor="start">Pressed: sounds</text><text x="48" y="694" class="small">Use a transistor driver for a buzzer that exceeds the controller or switch current limit.</text>
</svg>
