<svg xmlns="http://www.w3.org/2000/svg" width="1200" height="720" viewBox="0 0 1200 720" role="img" aria-labelledby="title desc">
  <title id="title">Circuit 9 - Arduino Controls One External LED</title>
  <desc id="desc">Arduino digital pin 8 drives a red LED through a 330 ohm resistor to common ground.</desc>
  <rect width="1200" height="720" fill="#f7fbfd"/>
  <style>
    .title { font: 700 30px Arial, sans-serif; fill: #17324d; }
    .h2 { font: 700 21px Arial, sans-serif; fill: #17324d; }
    .label { font: 600 17px Arial, sans-serif; fill: #17324d; }
    .small { font: 15px Arial, sans-serif; fill: #526d82; }
    .tiny { font: 12px Arial, sans-serif; fill: #526d82; }
    .wire { fill: none; stroke-width: 7; stroke-linecap: round; stroke-linejoin: round; }
    .thin { fill: none; stroke: #17324d; stroke-width: 3; }
    .panel { fill: #ffffff; stroke: #a8c0cc; stroke-width: 3; }
  </style>
  <text x="48" y="48" class="title">Circuit 9 - Arduino Controls One External LED</text>
<rect x="40" y="120" width="200" height="480" rx="22" fill="#d7f0f4" stroke="#167187" stroke-width="4"/>
<text x="140.0" y="162" class="h2" text-anchor="middle">Arduino Uno</text>
<rect x="64" y="192" width="82" height="125" rx="12" fill="#255f70" stroke="#17324d" stroke-width="3"/>
<text x="105" y="245" class="tiny" text-anchor="middle">ATmega</text>
<text x="105" y="265" class="tiny" text-anchor="middle">328P</text>
<circle cx="235" cy="220" r="9" fill="#fff" stroke="#17324d" stroke-width="3"/>
<text x="162" y="226" class="label" text-anchor="start">D4</text>
<circle cx="235" cy="265" r="9" fill="#fff" stroke="#17324d" stroke-width="3"/>
<text x="162" y="271" class="label" text-anchor="start">D5~</text>
<circle cx="235" cy="310" r="9" fill="#fff" stroke="#17324d" stroke-width="3"/>
<text x="162" y="316" class="label" text-anchor="start">D6~</text>
<circle cx="235" cy="355" r="9" fill="#fff" stroke="#17324d" stroke-width="3"/>
<text x="162" y="361" class="label" text-anchor="start">D7</text>
<circle cx="235" cy="400" r="9" fill="#fff" stroke="#17324d" stroke-width="3"/>
<text x="162" y="406" class="label" text-anchor="start">D8</text>
<circle cx="235" cy="445" r="9" fill="#fff" stroke="#17324d" stroke-width="3"/>
<text x="162" y="451" class="label" text-anchor="start">D9~</text>
<circle cx="235" cy="500" r="9" fill="#fff" stroke="#17324d" stroke-width="3"/>
<text x="162" y="506" class="label" text-anchor="start">5V</text>
<circle cx="235" cy="545" r="9" fill="#fff" stroke="#17324d" stroke-width="3"/>
<text x="162" y="551" class="label" text-anchor="start">GND</text><rect x="285" y="110" width="855" height="500" rx="24" fill="#e9f5f8" stroke="#287b91" stroke-width="4"/>
<line x1="323" y1="168" x2="1102" y2="168" stroke="#e53935" stroke-width="4"/>
<line x1="323" y1="201" x2="1102" y2="201" stroke="#1d70b8" stroke-width="4"/>
<line x1="323" y1="519" x2="1102" y2="519" stroke="#e53935" stroke-width="4"/>
<line x1="323" y1="552" x2="1102" y2="552" stroke="#1d70b8" stroke-width="4"/>
<rect x="323" y="342.0" width="779" height="36" fill="#d9e8ed"/>
<circle cx="380.0" cy="184.0" r="5" fill="#fff" stroke="#78909c" stroke-width="2"/>
<circle cx="380.0" cy="295.0" r="5" fill="#fff" stroke="#78909c" stroke-width="2"/>
<circle cx="380.0" cy="330.0" r="5" fill="#fff" stroke="#78909c" stroke-width="2"/>
<circle cx="380.0" cy="390.0" r="5" fill="#fff" stroke="#78909c" stroke-width="2"/>
<circle cx="380.0" cy="425.0" r="5" fill="#fff" stroke="#78909c" stroke-width="2"/>
<circle cx="380.0" cy="536.0" r="5" fill="#fff" stroke="#78909c" stroke-width="2"/>
<text x="380.0" y="366.0" class="tiny" text-anchor="middle">1</text>
<circle cx="440.5" cy="184.0" r="5" fill="#fff" stroke="#78909c" stroke-width="2"/>
<circle cx="440.5" cy="295.0" r="5" fill="#fff" stroke="#78909c" stroke-width="2"/>
<circle cx="440.5" cy="330.0" r="5" fill="#fff" stroke="#78909c" stroke-width="2"/>
<circle cx="440.5" cy="390.0" r="5" fill="#fff" stroke="#78909c" stroke-width="2"/>
<circle cx="440.5" cy="425.0" r="5" fill="#fff" stroke="#78909c" stroke-width="2"/>
<circle cx="440.5" cy="536.0" r="5" fill="#fff" stroke="#78909c" stroke-width="2"/>
<text x="440.45454545454544" y="366.0" class="tiny" text-anchor="middle">2</text>
<circle cx="500.9" cy="184.0" r="5" fill="#fff" stroke="#78909c" stroke-width="2"/>
<circle cx="500.9" cy="295.0" r="5" fill="#fff" stroke="#78909c" stroke-width="2"/>
<circle cx="500.9" cy="330.0" r="5" fill="#fff" stroke="#78909c" stroke-width="2"/>
<circle cx="500.9" cy="390.0" r="5" fill="#fff" stroke="#78909c" stroke-width="2"/>
<circle cx="500.9" cy="425.0" r="5" fill="#fff" stroke="#78909c" stroke-width="2"/>
<circle cx="500.9" cy="536.0" r="5" fill="#fff" stroke="#78909c" stroke-width="2"/>
<text x="500.9090909090909" y="366.0" class="tiny" text-anchor="middle">3</text>
<circle cx="561.4" cy="184.0" r="5" fill="#fff" stroke="#78909c" stroke-width="2"/>
<circle cx="561.4" cy="295.0" r="5" fill="#fff" stroke="#78909c" stroke-width="2"/>
<circle cx="561.4" cy="330.0" r="5" fill="#fff" stroke="#78909c" stroke-width="2"/>
<circle cx="561.4" cy="390.0" r="5" fill="#fff" stroke="#78909c" stroke-width="2"/>
<circle cx="561.4" cy="425.0" r="5" fill="#fff" stroke="#78909c" stroke-width="2"/>
<circle cx="561.4" cy="536.0" r="5" fill="#fff" stroke="#78909c" stroke-width="2"/>
<text x="561.3636363636364" y="366.0" class="tiny" text-anchor="middle">4</text>
<circle cx="621.8" cy="184.0" r="5" fill="#fff" stroke="#78909c" stroke-width="2"/>
<circle cx="621.8" cy="295.0" r="5" fill="#fff" stroke="#78909c" stroke-width="2"/>
<circle cx="621.8" cy="330.0" r="5" fill="#fff" stroke="#78909c" stroke-width="2"/>
<circle cx="621.8" cy="390.0" r="5" fill="#fff" stroke="#78909c" stroke-width="2"/>
<circle cx="621.8" cy="425.0" r="5" fill="#fff" stroke="#78909c" stroke-width="2"/>
<circle cx="621.8" cy="536.0" r="5" fill="#fff" stroke="#78909c" stroke-width="2"/>
<text x="621.8181818181818" y="366.0" class="tiny" text-anchor="middle">5</text>
<circle cx="682.3" cy="184.0" r="5" fill="#fff" stroke="#78909c" stroke-width="2"/>
<circle cx="682.3" cy="295.0" r="5" fill="#fff" stroke="#78909c" stroke-width="2"/>
<circle cx="682.3" cy="330.0" r="5" fill="#fff" stroke="#78909c" stroke-width="2"/>
<circle cx="682.3" cy="390.0" r="5" fill="#fff" stroke="#78909c" stroke-width="2"/>
<circle cx="682.3" cy="425.0" r="5" fill="#fff" stroke="#78909c" stroke-width="2"/>
<circle cx="682.3" cy="536.0" r="5" fill="#fff" stroke="#78909c" stroke-width="2"/>
<text x="682.2727272727273" y="366.0" class="tiny" text-anchor="middle">6</text>
<circle cx="742.7" cy="184.0" r="5" fill="#fff" stroke="#78909c" stroke-width="2"/>
<circle cx="742.7" cy="295.0" r="5" fill="#fff" stroke="#78909c" stroke-width="2"/>
<circle cx="742.7" cy="330.0" r="5" fill="#fff" stroke="#78909c" stroke-width="2"/>
<circle cx="742.7" cy="390.0" r="5" fill="#fff" stroke="#78909c" stroke-width="2"/>
<circle cx="742.7" cy="425.0" r="5" fill="#fff" stroke="#78909c" stroke-width="2"/>
<circle cx="742.7" cy="536.0" r="5" fill="#fff" stroke="#78909c" stroke-width="2"/>
<text x="742.7272727272727" y="366.0" class="tiny" text-anchor="middle">7</text>
<circle cx="803.2" cy="184.0" r="5" fill="#fff" stroke="#78909c" stroke-width="2"/>
<circle cx="803.2" cy="295.0" r="5" fill="#fff" stroke="#78909c" stroke-width="2"/>
<circle cx="803.2" cy="330.0" r="5" fill="#fff" stroke="#78909c" stroke-width="2"/>
<circle cx="803.2" cy="390.0" r="5" fill="#fff" stroke="#78909c" stroke-width="2"/>
<circle cx="803.2" cy="425.0" r="5" fill="#fff" stroke="#78909c" stroke-width="2"/>
<circle cx="803.2" cy="536.0" r="5" fill="#fff" stroke="#78909c" stroke-width="2"/>
<text x="803.1818181818182" y="366.0" class="tiny" text-anchor="middle">8</text>
<circle cx="863.6" cy="184.0" r="5" fill="#fff" stroke="#78909c" stroke-width="2"/>
<circle cx="863.6" cy="295.0" r="5" fill="#fff" stroke="#78909c" stroke-width="2"/>
<circle cx="863.6" cy="330.0" r="5" fill="#fff" stroke="#78909c" stroke-width="2"/>
<circle cx="863.6" cy="390.0" r="5" fill="#fff" stroke="#78909c" stroke-width="2"/>
<circle cx="863.6" cy="425.0" r="5" fill="#fff" stroke="#78909c" stroke-width="2"/>
<circle cx="863.6" cy="536.0" r="5" fill="#fff" stroke="#78909c" stroke-width="2"/>
<text x="863.6363636363636" y="366.0" class="tiny" text-anchor="middle">9</text>
<circle cx="924.1" cy="184.0" r="5" fill="#fff" stroke="#78909c" stroke-width="2"/>
<circle cx="924.1" cy="295.0" r="5" fill="#fff" stroke="#78909c" stroke-width="2"/>
<circle cx="924.1" cy="330.0" r="5" fill="#fff" stroke="#78909c" stroke-width="2"/>
<circle cx="924.1" cy="390.0" r="5" fill="#fff" stroke="#78909c" stroke-width="2"/>
<circle cx="924.1" cy="425.0" r="5" fill="#fff" stroke="#78909c" stroke-width="2"/>
<circle cx="924.1" cy="536.0" r="5" fill="#fff" stroke="#78909c" stroke-width="2"/>
<text x="924.0909090909091" y="366.0" class="tiny" text-anchor="middle">10</text>
<circle cx="984.5" cy="184.0" r="5" fill="#fff" stroke="#78909c" stroke-width="2"/>
<circle cx="984.5" cy="295.0" r="5" fill="#fff" stroke="#78909c" stroke-width="2"/>
<circle cx="984.5" cy="330.0" r="5" fill="#fff" stroke="#78909c" stroke-width="2"/>
<circle cx="984.5" cy="390.0" r="5" fill="#fff" stroke="#78909c" stroke-width="2"/>
<circle cx="984.5" cy="425.0" r="5" fill="#fff" stroke="#78909c" stroke-width="2"/>
<circle cx="984.5" cy="536.0" r="5" fill="#fff" stroke="#78909c" stroke-width="2"/>
<text x="984.5454545454545" y="366.0" class="tiny" text-anchor="middle">11</text>
<circle cx="1045.0" cy="184.0" r="5" fill="#fff" stroke="#78909c" stroke-width="2"/>
<circle cx="1045.0" cy="295.0" r="5" fill="#fff" stroke="#78909c" stroke-width="2"/>
<circle cx="1045.0" cy="330.0" r="5" fill="#fff" stroke="#78909c" stroke-width="2"/>
<circle cx="1045.0" cy="390.0" r="5" fill="#fff" stroke="#78909c" stroke-width="2"/>
<circle cx="1045.0" cy="425.0" r="5" fill="#fff" stroke="#78909c" stroke-width="2"/>
<circle cx="1045.0" cy="536.0" r="5" fill="#fff" stroke="#78909c" stroke-width="2"/>
<text x="1045.0" y="366.0" class="tiny" text-anchor="middle">12</text>
<text x="305" y="174" class="label" text-anchor="start">+</text>
<text x="305" y="208" class="label" text-anchor="start">-</text>
<text x="305" y="526" class="label" text-anchor="start">+</text>
<text x="305" y="559" class="label" text-anchor="start">-</text>
  <line x1="508" y1="290" x2="550" y2="290" stroke="#17324d" stroke-width="4"/>
  <rect x="550" y="273" width="120" height="34" rx="8" fill="#f2dda1" stroke="#795f22" stroke-width="3"/>
  <line x1="670" y1="290" x2="712" y2="290" stroke="#17324d" stroke-width="4"/>
  <text x="610" y="262" class="small" text-anchor="middle">330 ohm</text>

  <path d="M810,335 Q840,280 870,335 Z" fill="#ef5350" stroke="#17324d" stroke-width="4"/>
  <line x1="810" y1="335" x2="810" y2="398" stroke="#17324d" stroke-width="5"/>
  <line x1="870" y1="335" x2="870" y2="398" stroke="#17324d" stroke-width="5"/>
  <text x="840" y="270" class="label" text-anchor="middle">EXTERNAL LED</text>
  <text x="810" y="420" class="tiny" text-anchor="middle">A +</text>
  <text x="870" y="420" class="tiny" text-anchor="middle">K -</text>
<polyline points="235,400 410,400 410,290 508,290" fill="none" stroke="#ef7d19" stroke-width="7" stroke-linecap="round" stroke-linejoin="round"/><text x="340" y="385" class="small" text-anchor="middle">D8</text><polyline points="712,290 810,290 810,335" fill="none" stroke="#ef7d19" stroke-width="7" stroke-linecap="round" stroke-linejoin="round"/><polyline points="870,398 930,398 930,545 235,545" fill="none" stroke="#263238" stroke-width="7" stroke-linecap="round" stroke-linejoin="round"/><rect x="940" y="180" width="170" height="180" rx="16" class="panel"/>
<text x="960" y="212" class="h2" text-anchor="start">Program</text>
<text x="960" y="246" class="small" text-anchor="start">D8 = OUTPUT</text>
<text x="960" y="274" class="small" text-anchor="start">HIGH: LED on</text>
<text x="960" y="302" class="small" text-anchor="start">LOW: LED off</text>
<text x="960" y="330" class="small" text-anchor="start">delay sets timing</text><text x="48" y="694" class="small">Use a common GND between Arduino and every external component.</text>
</svg>
