<svg xmlns="http://www.w3.org/2000/svg" width="1200" height="720" viewBox="0 0 1200 720" role="img" aria-labelledby="title desc">
  <title id="title">Circuit 10 - Arduino Four-LED Sequential Light</title>
  <desc id="desc">Arduino pins 4 through 7 independently drive four LEDs, each through a 330 ohm resistor to common ground.</desc>
  <rect width="1200" height="720" fill="#f7fbfd"/>
  <style>
    .title { font: 700 30px Arial, sans-serif; fill: #17324d; }
    .h2 { font: 700 21px Arial, sans-serif; fill: #17324d; }
    .label { font: 600 17px Arial, sans-serif; fill: #17324d; }
    .small { font: 15px Arial, sans-serif; fill: #526d82; }
    .tiny { font: 12px Arial, sans-serif; fill: #526d82; }
    .wire { fill: none; stroke-width: 7; stroke-linecap: round; stroke-linejoin: round; }
    .thin { fill: none; stroke: #17324d; stroke-width: 3; }
    .panel { fill: #ffffff; stroke: #a8c0cc; stroke-width: 3; }
  </style>
  <text x="48" y="48" class="title">Circuit 10 - Arduino Four-LED Sequential Light</text>
<rect x="40" y="120" width="200" height="480" rx="22" fill="#d7f0f4" stroke="#167187" stroke-width="4"/>
<text x="140.0" y="162" class="h2" text-anchor="middle">Arduino Uno</text>
<rect x="64" y="192" width="82" height="125" rx="12" fill="#255f70" stroke="#17324d" stroke-width="3"/>
<text x="105" y="245" class="tiny" text-anchor="middle">ATmega</text>
<text x="105" y="265" class="tiny" text-anchor="middle">328P</text>
<circle cx="235" cy="220" r="9" fill="#fff" stroke="#17324d" stroke-width="3"/>
<text x="162" y="226" class="label" text-anchor="start">D4</text>
<circle cx="235" cy="265" r="9" fill="#fff" stroke="#17324d" stroke-width="3"/>
<text x="162" y="271" class="label" text-anchor="start">D5~</text>
<circle cx="235" cy="310" r="9" fill="#fff" stroke="#17324d" stroke-width="3"/>
<text x="162" y="316" class="label" text-anchor="start">D6~</text>
<circle cx="235" cy="355" r="9" fill="#fff" stroke="#17324d" stroke-width="3"/>
<text x="162" y="361" class="label" text-anchor="start">D7</text>
<circle cx="235" cy="400" r="9" fill="#fff" stroke="#17324d" stroke-width="3"/>
<text x="162" y="406" class="label" text-anchor="start">D8</text>
<circle cx="235" cy="445" r="9" fill="#fff" stroke="#17324d" stroke-width="3"/>
<text x="162" y="451" class="label" text-anchor="start">D9~</text>
<circle cx="235" cy="500" r="9" fill="#fff" stroke="#17324d" stroke-width="3"/>
<text x="162" y="506" class="label" text-anchor="start">5V</text>
<circle cx="235" cy="545" r="9" fill="#fff" stroke="#17324d" stroke-width="3"/>
<text x="162" y="551" class="label" text-anchor="start">GND</text><rect x="285" y="110" width="855" height="500" rx="24" fill="#e9f5f8" stroke="#287b91" stroke-width="4"/>
<line x1="323" y1="168" x2="1102" y2="168" stroke="#e53935" stroke-width="4"/>
<line x1="323" y1="201" x2="1102" y2="201" stroke="#1d70b8" stroke-width="4"/>
<line x1="323" y1="519" x2="1102" y2="519" stroke="#e53935" stroke-width="4"/>
<line x1="323" y1="552" x2="1102" y2="552" stroke="#1d70b8" stroke-width="4"/>
<rect x="323" y="342.0" width="779" height="36" fill="#d9e8ed"/>
<circle cx="380.0" cy="184.0" r="5" fill="#fff" stroke="#78909c" stroke-width="2"/>
<circle cx="380.0" cy="295.0" r="5" fill="#fff" stroke="#78909c" stroke-width="2"/>
<circle cx="380.0" cy="330.0" r="5" fill="#fff" stroke="#78909c" stroke-width="2"/>
<circle cx="380.0" cy="390.0" r="5" fill="#fff" stroke="#78909c" stroke-width="2"/>
<circle cx="380.0" cy="425.0" r="5" fill="#fff" stroke="#78909c" stroke-width="2"/>
<circle cx="380.0" cy="536.0" r="5" fill="#fff" stroke="#78909c" stroke-width="2"/>
<text x="380.0" y="366.0" class="tiny" text-anchor="middle">1</text>
<circle cx="440.5" cy="184.0" r="5" fill="#fff" stroke="#78909c" stroke-width="2"/>
<circle cx="440.5" cy="295.0" r="5" fill="#fff" stroke="#78909c" stroke-width="2"/>
<circle cx="440.5" cy="330.0" r="5" fill="#fff" stroke="#78909c" stroke-width="2"/>
<circle cx="440.5" cy="390.0" r="5" fill="#fff" stroke="#78909c" stroke-width="2"/>
<circle cx="440.5" cy="425.0" r="5" fill="#fff" stroke="#78909c" stroke-width="2"/>
<circle cx="440.5" cy="536.0" r="5" fill="#fff" stroke="#78909c" stroke-width="2"/>
<text x="440.45454545454544" y="366.0" class="tiny" text-anchor="middle">2</text>
<circle cx="500.9" cy="184.0" r="5" fill="#fff" stroke="#78909c" stroke-width="2"/>
<circle cx="500.9" cy="295.0" r="5" fill="#fff" stroke="#78909c" stroke-width="2"/>
<circle cx="500.9" cy="330.0" r="5" fill="#fff" stroke="#78909c" stroke-width="2"/>
<circle cx="500.9" cy="390.0" r="5" fill="#fff" stroke="#78909c" stroke-width="2"/>
<circle cx="500.9" cy="425.0" r="5" fill="#fff" stroke="#78909c" stroke-width="2"/>
<circle cx="500.9" cy="536.0" r="5" fill="#fff" stroke="#78909c" stroke-width="2"/>
<text x="500.9090909090909" y="366.0" class="tiny" text-anchor="middle">3</text>
<circle cx="561.4" cy="184.0" r="5" fill="#fff" stroke="#78909c" stroke-width="2"/>
<circle cx="561.4" cy="295.0" r="5" fill="#fff" stroke="#78909c" stroke-width="2"/>
<circle cx="561.4" cy="330.0" r="5" fill="#fff" stroke="#78909c" stroke-width="2"/>
<circle cx="561.4" cy="390.0" r="5" fill="#fff" stroke="#78909c" stroke-width="2"/>
<circle cx="561.4" cy="425.0" r="5" fill="#fff" stroke="#78909c" stroke-width="2"/>
<circle cx="561.4" cy="536.0" r="5" fill="#fff" stroke="#78909c" stroke-width="2"/>
<text x="561.3636363636364" y="366.0" class="tiny" text-anchor="middle">4</text>
<circle cx="621.8" cy="184.0" r="5" fill="#fff" stroke="#78909c" stroke-width="2"/>
<circle cx="621.8" cy="295.0" r="5" fill="#fff" stroke="#78909c" stroke-width="2"/>
<circle cx="621.8" cy="330.0" r="5" fill="#fff" stroke="#78909c" stroke-width="2"/>
<circle cx="621.8" cy="390.0" r="5" fill="#fff" stroke="#78909c" stroke-width="2"/>
<circle cx="621.8" cy="425.0" r="5" fill="#fff" stroke="#78909c" stroke-width="2"/>
<circle cx="621.8" cy="536.0" r="5" fill="#fff" stroke="#78909c" stroke-width="2"/>
<text x="621.8181818181818" y="366.0" class="tiny" text-anchor="middle">5</text>
<circle cx="682.3" cy="184.0" r="5" fill="#fff" stroke="#78909c" stroke-width="2"/>
<circle cx="682.3" cy="295.0" r="5" fill="#fff" stroke="#78909c" stroke-width="2"/>
<circle cx="682.3" cy="330.0" r="5" fill="#fff" stroke="#78909c" stroke-width="2"/>
<circle cx="682.3" cy="390.0" r="5" fill="#fff" stroke="#78909c" stroke-width="2"/>
<circle cx="682.3" cy="425.0" r="5" fill="#fff" stroke="#78909c" stroke-width="2"/>
<circle cx="682.3" cy="536.0" r="5" fill="#fff" stroke="#78909c" stroke-width="2"/>
<text x="682.2727272727273" y="366.0" class="tiny" text-anchor="middle">6</text>
<circle cx="742.7" cy="184.0" r="5" fill="#fff" stroke="#78909c" stroke-width="2"/>
<circle cx="742.7" cy="295.0" r="5" fill="#fff" stroke="#78909c" stroke-width="2"/>
<circle cx="742.7" cy="330.0" r="5" fill="#fff" stroke="#78909c" stroke-width="2"/>
<circle cx="742.7" cy="390.0" r="5" fill="#fff" stroke="#78909c" stroke-width="2"/>
<circle cx="742.7" cy="425.0" r="5" fill="#fff" stroke="#78909c" stroke-width="2"/>
<circle cx="742.7" cy="536.0" r="5" fill="#fff" stroke="#78909c" stroke-width="2"/>
<text x="742.7272727272727" y="366.0" class="tiny" text-anchor="middle">7</text>
<circle cx="803.2" cy="184.0" r="5" fill="#fff" stroke="#78909c" stroke-width="2"/>
<circle cx="803.2" cy="295.0" r="5" fill="#fff" stroke="#78909c" stroke-width="2"/>
<circle cx="803.2" cy="330.0" r="5" fill="#fff" stroke="#78909c" stroke-width="2"/>
<circle cx="803.2" cy="390.0" r="5" fill="#fff" stroke="#78909c" stroke-width="2"/>
<circle cx="803.2" cy="425.0" r="5" fill="#fff" stroke="#78909c" stroke-width="2"/>
<circle cx="803.2" cy="536.0" r="5" fill="#fff" stroke="#78909c" stroke-width="2"/>
<text x="803.1818181818182" y="366.0" class="tiny" text-anchor="middle">8</text>
<circle cx="863.6" cy="184.0" r="5" fill="#fff" stroke="#78909c" stroke-width="2"/>
<circle cx="863.6" cy="295.0" r="5" fill="#fff" stroke="#78909c" stroke-width="2"/>
<circle cx="863.6" cy="330.0" r="5" fill="#fff" stroke="#78909c" stroke-width="2"/>
<circle cx="863.6" cy="390.0" r="5" fill="#fff" stroke="#78909c" stroke-width="2"/>
<circle cx="863.6" cy="425.0" r="5" fill="#fff" stroke="#78909c" stroke-width="2"/>
<circle cx="863.6" cy="536.0" r="5" fill="#fff" stroke="#78909c" stroke-width="2"/>
<text x="863.6363636363636" y="366.0" class="tiny" text-anchor="middle">9</text>
<circle cx="924.1" cy="184.0" r="5" fill="#fff" stroke="#78909c" stroke-width="2"/>
<circle cx="924.1" cy="295.0" r="5" fill="#fff" stroke="#78909c" stroke-width="2"/>
<circle cx="924.1" cy="330.0" r="5" fill="#fff" stroke="#78909c" stroke-width="2"/>
<circle cx="924.1" cy="390.0" r="5" fill="#fff" stroke="#78909c" stroke-width="2"/>
<circle cx="924.1" cy="425.0" r="5" fill="#fff" stroke="#78909c" stroke-width="2"/>
<circle cx="924.1" cy="536.0" r="5" fill="#fff" stroke="#78909c" stroke-width="2"/>
<text x="924.0909090909091" y="366.0" class="tiny" text-anchor="middle">10</text>
<circle cx="984.5" cy="184.0" r="5" fill="#fff" stroke="#78909c" stroke-width="2"/>
<circle cx="984.5" cy="295.0" r="5" fill="#fff" stroke="#78909c" stroke-width="2"/>
<circle cx="984.5" cy="330.0" r="5" fill="#fff" stroke="#78909c" stroke-width="2"/>
<circle cx="984.5" cy="390.0" r="5" fill="#fff" stroke="#78909c" stroke-width="2"/>
<circle cx="984.5" cy="425.0" r="5" fill="#fff" stroke="#78909c" stroke-width="2"/>
<circle cx="984.5" cy="536.0" r="5" fill="#fff" stroke="#78909c" stroke-width="2"/>
<text x="984.5454545454545" y="366.0" class="tiny" text-anchor="middle">11</text>
<circle cx="1045.0" cy="184.0" r="5" fill="#fff" stroke="#78909c" stroke-width="2"/>
<circle cx="1045.0" cy="295.0" r="5" fill="#fff" stroke="#78909c" stroke-width="2"/>
<circle cx="1045.0" cy="330.0" r="5" fill="#fff" stroke="#78909c" stroke-width="2"/>
<circle cx="1045.0" cy="390.0" r="5" fill="#fff" stroke="#78909c" stroke-width="2"/>
<circle cx="1045.0" cy="425.0" r="5" fill="#fff" stroke="#78909c" stroke-width="2"/>
<circle cx="1045.0" cy="536.0" r="5" fill="#fff" stroke="#78909c" stroke-width="2"/>
<text x="1045.0" y="366.0" class="tiny" text-anchor="middle">12</text>
<text x="305" y="174" class="label" text-anchor="start">+</text>
<text x="305" y="208" class="label" text-anchor="start">-</text>
<text x="305" y="526" class="label" text-anchor="start">+</text>
<text x="305" y="559" class="label" text-anchor="start">-</text>
  <line x1="343" y1="300" x2="385" y2="300" stroke="#17324d" stroke-width="4"/>
  <rect x="385" y="283" width="120" height="34" rx="8" fill="#f2dda1" stroke="#795f22" stroke-width="3"/>
  <line x1="505" y1="300" x2="547" y2="300" stroke="#17324d" stroke-width="4"/>
  <text x="445" y="272" class="small" text-anchor="middle">330</text>

  <path d="M515,355 Q545,300 575,355 Z" fill="#ef5350" stroke="#17324d" stroke-width="4"/>
  <line x1="515" y1="355" x2="515" y2="418" stroke="#17324d" stroke-width="5"/>
  <line x1="575" y1="355" x2="575" y2="418" stroke="#17324d" stroke-width="5"/>
  <text x="545" y="290" class="label" text-anchor="middle">LED 1</text>
  <text x="515" y="440" class="tiny" text-anchor="middle">A +</text>
  <text x="575" y="440" class="tiny" text-anchor="middle">K -</text>
<polyline points="235,220 300,220 300,300 343,300" fill="none" stroke="#ef5350" stroke-width="5" stroke-linecap="round" stroke-linejoin="round"/><polyline points="575,418 575,520" fill="none" stroke="#263238" stroke-width="5" stroke-linecap="round" stroke-linejoin="round"/>
  <line x1="503" y1="300" x2="545" y2="300" stroke="#17324d" stroke-width="4"/>
  <rect x="545" y="283" width="120" height="34" rx="8" fill="#f2dda1" stroke="#795f22" stroke-width="3"/>
  <line x1="665" y1="300" x2="707" y2="300" stroke="#17324d" stroke-width="4"/>
  <text x="605" y="272" class="small" text-anchor="middle">330</text>

  <path d="M675,355 Q705,300 735,355 Z" fill="#ffb300" stroke="#17324d" stroke-width="4"/>
  <line x1="675" y1="355" x2="675" y2="418" stroke="#17324d" stroke-width="5"/>
  <line x1="735" y1="355" x2="735" y2="418" stroke="#17324d" stroke-width="5"/>
  <text x="705" y="290" class="label" text-anchor="middle">LED 2</text>
  <text x="675" y="440" class="tiny" text-anchor="middle">A +</text>
  <text x="735" y="440" class="tiny" text-anchor="middle">K -</text>
<polyline points="235,265 318,265 318,300 503,300" fill="none" stroke="#ffb300" stroke-width="5" stroke-linecap="round" stroke-linejoin="round"/><polyline points="735,418 735,520" fill="none" stroke="#263238" stroke-width="5" stroke-linecap="round" stroke-linejoin="round"/>
  <line x1="663" y1="300" x2="705" y2="300" stroke="#17324d" stroke-width="4"/>
  <rect x="705" y="283" width="120" height="34" rx="8" fill="#f2dda1" stroke="#795f22" stroke-width="3"/>
  <line x1="825" y1="300" x2="867" y2="300" stroke="#17324d" stroke-width="4"/>
  <text x="765" y="272" class="small" text-anchor="middle">330</text>

  <path d="M835,355 Q865,300 895,355 Z" fill="#43a047" stroke="#17324d" stroke-width="4"/>
  <line x1="835" y1="355" x2="835" y2="418" stroke="#17324d" stroke-width="5"/>
  <line x1="895" y1="355" x2="895" y2="418" stroke="#17324d" stroke-width="5"/>
  <text x="865" y="290" class="label" text-anchor="middle">LED 3</text>
  <text x="835" y="440" class="tiny" text-anchor="middle">A +</text>
  <text x="895" y="440" class="tiny" text-anchor="middle">K -</text>
<polyline points="235,310 336,310 336,300 663,300" fill="none" stroke="#43a047" stroke-width="5" stroke-linecap="round" stroke-linejoin="round"/><polyline points="895,418 895,520" fill="none" stroke="#263238" stroke-width="5" stroke-linecap="round" stroke-linejoin="round"/>
  <line x1="823" y1="300" x2="865" y2="300" stroke="#17324d" stroke-width="4"/>
  <rect x="865" y="283" width="120" height="34" rx="8" fill="#f2dda1" stroke="#795f22" stroke-width="3"/>
  <line x1="985" y1="300" x2="1027" y2="300" stroke="#17324d" stroke-width="4"/>
  <text x="925" y="272" class="small" text-anchor="middle">330</text>

  <path d="M995,355 Q1025,300 1055,355 Z" fill="#2979ff" stroke="#17324d" stroke-width="4"/>
  <line x1="995" y1="355" x2="995" y2="418" stroke="#17324d" stroke-width="5"/>
  <line x1="1055" y1="355" x2="1055" y2="418" stroke="#17324d" stroke-width="5"/>
  <text x="1025" y="290" class="label" text-anchor="middle">LED 4</text>
  <text x="995" y="440" class="tiny" text-anchor="middle">A +</text>
  <text x="1055" y="440" class="tiny" text-anchor="middle">K -</text>
<polyline points="235,355 354,355 354,300 823,300" fill="none" stroke="#2979ff" stroke-width="5" stroke-linecap="round" stroke-linejoin="round"/><polyline points="1055,418 1055,520" fill="none" stroke="#263238" stroke-width="5" stroke-linecap="round" stroke-linejoin="round"/><polyline points="545,520 1055,520 1055,545 235,545" fill="none" stroke="#263238" stroke-width="6" stroke-linecap="round" stroke-linejoin="round"/><rect x="955" y="145" width="165" height="150" rx="16" class="panel"/>
<text x="975" y="177" class="h2" text-anchor="start">Pins</text>
<text x="975" y="211" class="small" text-anchor="start">D4 -&gt; LED 1</text>
<text x="975" y="239" class="small" text-anchor="start">D5 -&gt; LED 2</text>
<text x="975" y="267" class="small" text-anchor="start">D6 -&gt; LED 3</text>
<text x="975" y="295" class="small" text-anchor="start">D7 -&gt; LED 4</text><text x="48" y="694" class="small">The LEDs are separate parallel output branches; software creates the running-light sequence.</text>
</svg>
