<svg xmlns="http://www.w3.org/2000/svg" width="1200" height="720" viewBox="0 0 1200 720" role="img" aria-labelledby="title desc">
  <title id="title">ESP32 DevKit Pinout Reference</title>
  <desc id="desc">Educational ESP32 DevKit pin map for the wireless control projects.</desc>
  <rect width="1200" height="720" fill="#f7fbfd"/>
  <defs>
    <marker id="arrow" markerWidth="12" markerHeight="12" refX="10" refY="6" orient="auto" markerUnits="strokeWidth">
      <path d="M2,2 L10,6 L2,10 Z" fill="#17324d"/>
    </marker>
  </defs>
  <style>
    .title { font: 700 30px Arial, sans-serif; fill: #17324d; }
    .h2 { font: 700 21px Arial, sans-serif; fill: #17324d; }
    .label { font: 600 17px Arial, sans-serif; fill: #17324d; }
    .small { font: 15px Arial, sans-serif; fill: #526d82; }
    .tiny { font: 12px Arial, sans-serif; fill: #526d82; }
    .mono { font: 600 14px Consolas, monospace; fill: #17324d; }
    .panel { fill: #ffffff; stroke: #a8c0cc; stroke-width: 3; }
    .wire { fill: none; stroke-width: 6; stroke-linecap: round; stroke-linejoin: round; }
  </style>
  <text x="48" y="48" class="title">ESP32 DevKit Pinout Reference</text>
<rect x="300" y="90" width="600" height="560" rx="28" fill="#d8e7f7" stroke="#167187" stroke-width="3"/>
<rect x="485" y="145" width="230" height="220" rx="18" fill="#255f70" stroke="#17324d" stroke-width="3"/>
<text x="600" y="245" class="h2" text-anchor="middle">ESP32-WROOM</text>
<rect x="535" y="565" width="130" height="45" rx="8" fill="#bccbd3" stroke="#17324d" stroke-width="3"/>
<text x="600" y="594" class="label" text-anchor="middle">USB</text>
<circle cx="300" cy="140" r="8" fill="#fff" stroke="#17324d" stroke-width="2"/>
<text x="110" y="145" class="label" text-anchor="start">3V3</text>
<polyline points="292,140 220,140" class="wire" stroke="#e53935" stroke-width="5"/>
<circle cx="300" cy="196" r="8" fill="#fff" stroke="#17324d" stroke-width="2"/>
<text x="110" y="201" class="label" text-anchor="start">GND</text>
<polyline points="292,196 220,196" class="wire" stroke="#263238" stroke-width="5"/>
<circle cx="300" cy="252" r="8" fill="#fff" stroke="#17324d" stroke-width="2"/>
<text x="110" y="257" class="label" text-anchor="start">GPIO34 ADC</text>
<polyline points="292,252 220,252" class="wire" stroke="#2e9d55" stroke-width="5"/>
<circle cx="300" cy="308" r="8" fill="#fff" stroke="#17324d" stroke-width="2"/>
<text x="110" y="313" class="label" text-anchor="start">GPIO25</text>
<polyline points="292,308 220,308" class="wire" stroke="#2374d8" stroke-width="5"/>
<circle cx="300" cy="364" r="8" fill="#fff" stroke="#17324d" stroke-width="2"/>
<text x="110" y="369" class="label" text-anchor="start">GPIO26</text>
<polyline points="292,364 220,364" class="wire" stroke="#2374d8" stroke-width="5"/>
<circle cx="300" cy="420" r="8" fill="#fff" stroke="#17324d" stroke-width="2"/>
<text x="110" y="425" class="label" text-anchor="start">GPIO27</text>
<polyline points="292,420 220,420" class="wire" stroke="#2374d8" stroke-width="5"/>
<circle cx="300" cy="476" r="8" fill="#fff" stroke="#17324d" stroke-width="2"/>
<text x="110" y="481" class="label" text-anchor="start">GPIO14</text>
<polyline points="292,476 220,476" class="wire" stroke="#2374d8" stroke-width="5"/>
<circle cx="300" cy="532" r="8" fill="#fff" stroke="#17324d" stroke-width="2"/>
<text x="110" y="537" class="label" text-anchor="start">GPIO12</text>
<polyline points="292,532 220,532" class="wire" stroke="#2374d8" stroke-width="5"/>
<circle cx="900" cy="140" r="8" fill="#fff" stroke="#17324d" stroke-width="2"/>
<text x="930" y="145" class="label" text-anchor="start">VIN/5V</text>
<polyline points="908,140 980,140" class="wire" stroke="#e53935" stroke-width="5"/>
<circle cx="900" cy="196" r="8" fill="#fff" stroke="#17324d" stroke-width="2"/>
<text x="930" y="201" class="label" text-anchor="start">GND</text>
<polyline points="908,196 980,196" class="wire" stroke="#263238" stroke-width="5"/>
<circle cx="900" cy="252" r="8" fill="#fff" stroke="#17324d" stroke-width="2"/>
<text x="930" y="257" class="label" text-anchor="start">GPIO2 LED</text>
<polyline points="908,252 980,252" class="wire" stroke="#ef7d19" stroke-width="5"/>
<circle cx="900" cy="308" r="8" fill="#fff" stroke="#17324d" stroke-width="2"/>
<text x="930" y="313" class="label" text-anchor="start">GPIO13 Servo</text>
<polyline points="908,308 980,308" class="wire" stroke="#7556d8" stroke-width="5"/>
<circle cx="900" cy="364" r="8" fill="#fff" stroke="#17324d" stroke-width="2"/>
<text x="930" y="369" class="label" text-anchor="start">GPIO18</text>
<polyline points="908,364 980,364" class="wire" stroke="#2374d8" stroke-width="5"/>
<circle cx="900" cy="420" r="8" fill="#fff" stroke="#17324d" stroke-width="2"/>
<text x="930" y="425" class="label" text-anchor="start">GPIO19</text>
<polyline points="908,420 980,420" class="wire" stroke="#2374d8" stroke-width="5"/>
<circle cx="900" cy="476" r="8" fill="#fff" stroke="#17324d" stroke-width="2"/>
<text x="930" y="481" class="label" text-anchor="start">GPIO21 SDA</text>
<polyline points="908,476 980,476" class="wire" stroke="#00a6c8" stroke-width="5"/>
<circle cx="900" cy="532" r="8" fill="#fff" stroke="#17324d" stroke-width="2"/>
<text x="930" y="537" class="label" text-anchor="start">GPIO22 SCL</text>
<polyline points="908,532 980,532" class="wire" stroke="#00a6c8" stroke-width="5"/>
<rect x="80" y="520" width="330" height="130" rx="16" fill="#ffffff" stroke="#a8c0cc" stroke-width="3"/>
<text x="98" y="550" class="h2" text-anchor="start">Classroom cautions</text>
<text x="100" y="582" class="small" text-anchor="start">GPIO34 is input-only ADC</text>
<text x="100" y="607" class="small" text-anchor="start">ESP32 GPIO logic is 3.3V</text>
<text x="100" y="632" class="small" text-anchor="start">Use VIN/5V only for board power</text>
<text x="100" y="657" class="small" text-anchor="start">Always share GND</text>
  <text x="48" y="694" class="small">Board labels vary by manufacturer; confirm before wiring.</text>
</svg>
