<svg xmlns="http://www.w3.org/2000/svg" width="1200" height="720" viewBox="0 0 1200 720" role="img" aria-labelledby="title desc">
  <title id="title">ESP32 Smart Home Demo Complete Circuit</title>
  <desc id="desc">A phone browser controls the room LED and door servo while the ESP32 reads an LDR.</desc>
  <rect width="1200" height="720" fill="#f7fbfd"/>
  <defs>
    <marker id="arrow" markerWidth="12" markerHeight="12" refX="10" refY="6" orient="auto" markerUnits="strokeWidth">
      <path d="M2,2 L10,6 L2,10 Z" fill="#17324d"/>
    </marker>
  </defs>
  <style>
    .title { font: 700 30px Arial, sans-serif; fill: #17324d; }
    .h2 { font: 700 21px Arial, sans-serif; fill: #17324d; }
    .label { font: 600 17px Arial, sans-serif; fill: #17324d; }
    .small { font: 15px Arial, sans-serif; fill: #526d82; }
    .tiny { font: 12px Arial, sans-serif; fill: #526d82; }
    .mono { font: 600 14px Consolas, monospace; fill: #17324d; }
    .panel { fill: #ffffff; stroke: #a8c0cc; stroke-width: 3; }
    .wire { fill: none; stroke-width: 6; stroke-linecap: round; stroke-linejoin: round; }
  </style>
  <text x="48" y="48" class="title">ESP32 Smart Home Demo Complete Circuit</text>
<rect x="50" y="105" width="230" height="500" rx="24" fill="#d8e7f7" stroke="#167187" stroke-width="3"/>
<text x="165.0" y="143" class="h2" text-anchor="middle">ESP32 DevKit</text>
<rect x="120" y="173" width="90" height="125" rx="12" fill="#255f70" stroke="#17324d" stroke-width="3"/>
<text x="165" y="233" class="label" text-anchor="middle">ESP32</text>
<rect x="118" y="547" width="94" height="32" rx="6" fill="#bccbd3" stroke="#17324d" stroke-width="3"/>
<text x="165" y="569" class="tiny" text-anchor="middle">USB</text>
<circle cx="275" cy="183.0" r="8" fill="#fff" stroke="#17324d" stroke-width="2"/>
<text x="198" y="188.0" class="small" text-anchor="start">GPIO2</text>
<circle cx="275" cy="257.0" r="8" fill="#fff" stroke="#17324d" stroke-width="2"/>
<text x="198" y="262.0" class="small" text-anchor="start">GPIO13</text>
<circle cx="275" cy="331.0" r="8" fill="#d7f3dd" stroke="#17324d" stroke-width="2"/>
<text x="198" y="336.0" class="small" text-anchor="start">GPIO34</text>
<circle cx="275" cy="405.0" r="8" fill="#f8c5c5" stroke="#17324d" stroke-width="2"/>
<text x="198" y="410.0" class="small" text-anchor="start">3V3</text>
<circle cx="275" cy="479.0" r="8" fill="#f8c5c5" stroke="#17324d" stroke-width="2"/>
<text x="198" y="484.0" class="small" text-anchor="start">VIN/5V</text>
<circle cx="275" cy="553.0" r="8" fill="#263238" stroke="#17324d" stroke-width="2"/>
<text x="198" y="558.0" class="small" text-anchor="start">GND</text>
<rect x="375" y="105" width="245" height="190" rx="18" fill="#ffffff" stroke="#a8c0cc" stroke-width="3"/>
<text x="497.5" y="139" class="h2" text-anchor="middle">Phone Browser</text>
<rect x="506" y="135" width="72" height="124" rx="12" fill="#222" stroke="#17324d" stroke-width="3"/>
<rect x="514" y="151" width="56" height="88" rx="4" fill="#e8f7fb" stroke="#111" stroke-width="3"/>
<text x="542" y="199" class="tiny" text-anchor="middle">APP</text>
<circle cx="375" cy="171.0" r="7" fill="#fff" stroke="#17324d" stroke-width="2"/>
<text x="393" y="176.0" class="small" text-anchor="start">HTTP</text>
<rect x="675" y="105" width="250" height="190" rx="18" fill="#ffffff" stroke="#a8c0cc" stroke-width="3"/>
<text x="800.0" y="139" class="h2" text-anchor="middle">Room LED</text>

  <path d="M821,199 Q847,153 873,199 Z" fill="#f6a800" stroke="#17324d" stroke-width="3"/>
  <line x1="821" y1="199" x2="821" y2="255" stroke="#17324d" stroke-width="4"/>
  <line x1="873" y1="199" x2="873" y2="255" stroke="#17324d" stroke-width="4"/>
  <text x="847" y="146" class="tiny" text-anchor="middle"></text>


  <line x1="725" y1="253" x2="767" y2="253" stroke="#17324d" stroke-width="4"/>
  <rect x="767" y="237" width="112" height="32" rx="8" fill="#f2dda1" stroke="#795f22" stroke-width="3"/>
  <line x1="879" y1="253" x2="921" y2="253" stroke="#17324d" stroke-width="4"/>
  <text x="823" y="228" class="tiny" text-anchor="middle">330 ohm</text>

<circle cx="675" cy="171.0" r="7" fill="#fff" stroke="#17324d" stroke-width="2"/>
<text x="693" y="176.0" class="small" text-anchor="start">GPIO2</text>
<circle cx="675" cy="265.0" r="7" fill="#263238" stroke="#17324d" stroke-width="2"/>
<text x="693" y="270.0" class="small" text-anchor="start">GND</text>
<rect x="675" y="330" width="250" height="210" rx="18" fill="#ffffff" stroke="#a8c0cc" stroke-width="3"/>
<text x="800.0" y="364" class="h2" text-anchor="middle">Door Servo</text>
<rect x="789" y="384" width="116" height="76" rx="10" fill="#4aa3d8" stroke="#17324d" stroke-width="3"/>
<circle cx="847" cy="422" r="24" fill="#d9e4ea" stroke="#17324d" stroke-width="3"/>
<polyline points="847,422 905,390" class="wire" stroke="#17324d" stroke-width="7"/>
<circle cx="675" cy="396.0" r="7" fill="#fff" stroke="#17324d" stroke-width="2"/>
<text x="693" y="401.0" class="small" text-anchor="start">SIGNAL</text>
<circle cx="675" cy="453.0" r="7" fill="#f8c5c5" stroke="#17324d" stroke-width="2"/>
<text x="693" y="458.0" class="small" text-anchor="start">5V</text>
<circle cx="675" cy="510.0" r="7" fill="#263238" stroke="#17324d" stroke-width="2"/>
<text x="693" y="515.0" class="small" text-anchor="start">GND</text>
<rect x="950" y="210" width="205" height="230" rx="18" fill="#ffffff" stroke="#a8c0cc" stroke-width="3"/>
<text x="1052.5" y="244" class="h2" text-anchor="middle">Light Sensor</text>
<circle cx="1077" cy="302" r="42" fill="#f3e6a1" stroke="#17324d" stroke-width="3"/>
<polyline points="1021,264 1054,287" class="wire" stroke="#f6a800" stroke-width="4" marker-end="url(#arrow)"/>
<polyline points="1023,307 1055,324" class="wire" stroke="#f6a800" stroke-width="4" marker-end="url(#arrow)"/>
<text x="1077" y="308" class="label" text-anchor="middle">LDR</text>
<circle cx="950" cy="276.0" r="7" fill="#f8c5c5" stroke="#17324d" stroke-width="2"/>
<text x="968" y="281.0" class="small" text-anchor="start">3V3</text>
<circle cx="950" cy="343.0" r="7" fill="#d7f3dd" stroke="#17324d" stroke-width="2"/>
<text x="968" y="348.0" class="small" text-anchor="start">GPIO34</text>
<circle cx="950" cy="410.0" r="7" fill="#263238" stroke="#17324d" stroke-width="2"/>
<text x="968" y="415.0" class="small" text-anchor="start">GND</text>
<polyline points="275,183.0 475.0,162.0 475.0,150.0 675,171.0" class="wire" stroke="#ef7d19" stroke-width="5"/>
<text x="483.0" y="151.0" class="tiny" text-anchor="start">light</text>
<polyline points="275,553.0 475.0,539.0 475.0,251.0 675,265.0" class="wire" stroke="#263238" stroke-width="5"/>
<polyline points="275,257.0 475.0,250.0 475.0,389.0 675,396.0" class="wire" stroke="#7556d8" stroke-width="5"/>
<text x="483.0" y="314.5" class="tiny" text-anchor="start">door</text>
<polyline points="275,479.0 475.0,479.0 475.0,453.0 675,453.0" class="wire" stroke="#e53935" stroke-width="5"/>
<polyline points="275,553.0 475.0,560.0 475.0,517.0 675,510.0" class="wire" stroke="#263238" stroke-width="5"/>
<polyline points="275,405.0 612.5,419.0 612.5,290.0 950,276.0" class="wire" stroke="#e53935" stroke-width="5"/>
<polyline points="275,331.0 612.5,352.0 612.5,364.0 950,343.0" class="wire" stroke="#2e9d55" stroke-width="5"/>
<text x="620.5" y="353.0" class="tiny" text-anchor="start">light level</text>
<polyline points="275,553.0 612.5,532.0 612.5,389.0 950,410.0" class="wire" stroke="#263238" stroke-width="5"/>
<rect x="850" y="500" width="300" height="114" rx="16" fill="#ffffff" stroke="#a8c0cc" stroke-width="3"/>
<text x="868" y="530" class="h2" text-anchor="start">Key notes</text>
<text x="870" y="562" class="small" text-anchor="start">Wi-Fi AP: InnoBees_Lab</text>
<text x="870" y="587" class="small" text-anchor="start">Open http://192.168.4.1</text>
<text x="870" y="612" class="small" text-anchor="start">Auto mode turns light on in darkness</text>
  <text x="48" y="694" class="small">Pins match arduino/05_smart_home_demo.</text>
</svg>
