<svg xmlns="http://www.w3.org/2000/svg" width="1200" height="720" viewBox="0 0 1200 720" role="img" aria-labelledby="title desc">
  <title id="title">RGB LED Common Cathode with PWM</title>
  <desc id="desc">Three PWM pins drive the red, green, and blue channels through separate resistors.</desc>
  <rect width="1200" height="720" fill="#f7fbfd"/>
  <defs>
    <marker id="arrow" markerWidth="12" markerHeight="12" refX="10" refY="6" orient="auto" markerUnits="strokeWidth">
      <path d="M2,2 L10,6 L2,10 Z" fill="#17324d"/>
    </marker>
  </defs>
  <style>
    .title { font: 700 30px Arial, sans-serif; fill: #17324d; }
    .h2 { font: 700 21px Arial, sans-serif; fill: #17324d; }
    .label { font: 600 17px Arial, sans-serif; fill: #17324d; }
    .small { font: 15px Arial, sans-serif; fill: #526d82; }
    .tiny { font: 12px Arial, sans-serif; fill: #526d82; }
    .mono { font: 600 14px Consolas, monospace; fill: #17324d; }
    .panel { fill: #ffffff; stroke: #a8c0cc; stroke-width: 3; }
    .wire { fill: none; stroke-width: 6; stroke-linecap: round; stroke-linejoin: round; }
  </style>
  <text x="48" y="48" class="title">RGB LED Common Cathode with PWM</text>
<rect x="50" y="105" width="245" height="500" rx="24" fill="#cce9f0" stroke="#167187" stroke-width="3"/>
<text x="172.5" y="143" class="h2" text-anchor="middle">Arduino Uno</text>
<rect x="78" y="177" width="78" height="120" rx="12" fill="#255f70" stroke="#17324d" stroke-width="3"/>
<text x="117" y="229" class="tiny" text-anchor="middle">ATmega</text>
<text x="117" y="249" class="tiny" text-anchor="middle">328P</text>
<rect x="83" y="517" width="95" height="52" rx="8" fill="#bccbd3" stroke="#17324d" stroke-width="3"/>
<text x="130" y="549" class="tiny" text-anchor="middle">USB-B</text>
<circle cx="290" cy="183.0" r="8" fill="#fff" stroke="#17324d" stroke-width="2"/>
<text x="213" y="188.0" class="small" text-anchor="start">D9</text>
<circle cx="290" cy="306.3333333333333" r="8" fill="#fff" stroke="#17324d" stroke-width="2"/>
<text x="213" y="311.3333333333333" class="small" text-anchor="start">D10</text>
<circle cx="290" cy="429.66666666666663" r="8" fill="#fff" stroke="#17324d" stroke-width="2"/>
<text x="213" y="434.66666666666663" class="small" text-anchor="start">D11</text>
<circle cx="290" cy="553.0" r="8" fill="#263238" stroke="#17324d" stroke-width="2"/>
<text x="213" y="558.0" class="small" text-anchor="start">GND</text>
<rect x="440" y="160" width="370" height="285" rx="18" fill="#ffffff" stroke="#a8c0cc" stroke-width="3"/>
<text x="625.0" y="194" class="h2" text-anchor="middle">Common-Cathode RGB LED</text>
<circle cx="710" cy="252" r="27" fill="#ef5350" stroke="#17324d" stroke-width="2"/>
<circle cx="750" cy="252" r="27" fill="#43a047" stroke="#17324d" stroke-width="2"/>
<circle cx="730" cy="286" r="27" fill="#2979ff" stroke="#17324d" stroke-width="2"/>
<circle cx="440" cy="226.0" r="7" fill="#fff" stroke="#17324d" stroke-width="2"/>
<text x="458" y="231.0" class="small" text-anchor="start">R</text>
<circle cx="440" cy="289.0" r="7" fill="#fff" stroke="#17324d" stroke-width="2"/>
<text x="458" y="294.0" class="small" text-anchor="start">G</text>
<circle cx="440" cy="352.0" r="7" fill="#fff" stroke="#17324d" stroke-width="2"/>
<text x="458" y="357.0" class="small" text-anchor="start">B</text>
<circle cx="440" cy="415.0" r="7" fill="#263238" stroke="#17324d" stroke-width="2"/>
<text x="458" y="420.0" class="small" text-anchor="start">GND</text>
<polyline points="290,183.0 365.0,162.0 365.0,205.0 440,226.0" class="wire" stroke="#e53935" stroke-width="5"/>
<text x="373.0" y="178.5" class="tiny" text-anchor="start">red PWM</text>
<polyline points="290,306.3333333333333 365.0,292.3333333333333 365.0,275.0 440,289.0" class="wire" stroke="#2e9d55" stroke-width="5"/>
<text x="373.0" y="278.66666666666663" class="tiny" text-anchor="start">green PWM</text>
<polyline points="290,429.66666666666663 365.0,422.66666666666663 365.0,345.0 440,352.0" class="wire" stroke="#2374d8" stroke-width="5"/>
<text x="373.0" y="378.8333333333333" class="tiny" text-anchor="start">blue PWM</text>
<polyline points="290,553.0 365.0,553.0 365.0,415.0 440,415.0" class="wire" stroke="#263238" stroke-width="5"/>
<text x="373.0" y="479.0" class="tiny" text-anchor="start">common cathode</text>
<rect x="850" y="500" width="300" height="114" rx="16" fill="#ffffff" stroke="#a8c0cc" stroke-width="3"/>
<text x="868" y="530" class="h2" text-anchor="start">Key notes</text>
<text x="870" y="562" class="small" text-anchor="start">One resistor per color channel</text>
<text x="870" y="587" class="small" text-anchor="start">analogWrite values: 0-255</text>
<text x="870" y="612" class="small" text-anchor="start">R+G+B mix visible colors</text>
  <text x="48" y="694" class="small">Pins match arduino/01_rgb_color_mixer.</text>
</svg>
