<svg xmlns="http://www.w3.org/2000/svg" width="1200" height="720" viewBox="0 0 1200 720" role="img" aria-labelledby="title desc">
  <title id="title">Smart Classroom Display System</title>
  <desc id="desc">A combined output system shows sensor data, alerts with sound, changes color, and moves a servo.</desc>
  <rect width="1200" height="720" fill="#f7fbfd"/>
  <defs>
    <marker id="arrow" markerWidth="12" markerHeight="12" refX="10" refY="6" orient="auto" markerUnits="strokeWidth">
      <path d="M2,2 L10,6 L2,10 Z" fill="#17324d"/>
    </marker>
  </defs>
  <style>
    .title { font: 700 30px Arial, sans-serif; fill: #17324d; }
    .h2 { font: 700 21px Arial, sans-serif; fill: #17324d; }
    .label { font: 600 17px Arial, sans-serif; fill: #17324d; }
    .small { font: 15px Arial, sans-serif; fill: #526d82; }
    .tiny { font: 12px Arial, sans-serif; fill: #526d82; }
    .mono { font: 600 14px Consolas, monospace; fill: #17324d; }
    .panel { fill: #ffffff; stroke: #a8c0cc; stroke-width: 3; }
    .wire { fill: none; stroke-width: 6; stroke-linecap: round; stroke-linejoin: round; }
  </style>
  <text x="48" y="48" class="title">Smart Classroom Display System</text>
<rect x="50" y="105" width="245" height="500" rx="24" fill="#cce9f0" stroke="#167187" stroke-width="3"/>
<text x="172.5" y="143" class="h2" text-anchor="middle">Arduino Uno</text>
<rect x="78" y="177" width="78" height="120" rx="12" fill="#255f70" stroke="#17324d" stroke-width="3"/>
<text x="117" y="229" class="tiny" text-anchor="middle">ATmega</text>
<text x="117" y="249" class="tiny" text-anchor="middle">328P</text>
<rect x="83" y="517" width="95" height="52" rx="8" fill="#bccbd3" stroke="#17324d" stroke-width="3"/>
<text x="130" y="549" class="tiny" text-anchor="middle">USB-B</text>
<circle cx="290" cy="183.0" r="8" fill="#d7f3dd" stroke="#17324d" stroke-width="2"/>
<text x="213" y="188.0" class="small" text-anchor="start">A0</text>
<circle cx="290" cy="224.11111111111111" r="8" fill="#fff" stroke="#17324d" stroke-width="2"/>
<text x="213" y="229.11111111111111" class="small" text-anchor="start">D4</text>
<circle cx="290" cy="265.22222222222223" r="8" fill="#fff" stroke="#17324d" stroke-width="2"/>
<text x="213" y="270.22222222222223" class="small" text-anchor="start">D5</text>
<circle cx="290" cy="306.33333333333337" r="8" fill="#fff" stroke="#17324d" stroke-width="2"/>
<text x="213" y="311.33333333333337" class="small" text-anchor="start">D6</text>
<circle cx="290" cy="347.44444444444446" r="8" fill="#fff" stroke="#17324d" stroke-width="2"/>
<text x="213" y="352.44444444444446" class="small" text-anchor="start">D7</text>
<circle cx="290" cy="388.55555555555554" r="8" fill="#fff" stroke="#17324d" stroke-width="2"/>
<text x="213" y="393.55555555555554" class="small" text-anchor="start">D9</text>
<circle cx="290" cy="429.6666666666667" r="8" fill="#d7f3dd" stroke="#17324d" stroke-width="2"/>
<text x="213" y="434.6666666666667" class="small" text-anchor="start">A4/SDA</text>
<circle cx="290" cy="470.7777777777778" r="8" fill="#d7f3dd" stroke="#17324d" stroke-width="2"/>
<text x="213" y="475.7777777777778" class="small" text-anchor="start">A5/SCL</text>
<circle cx="290" cy="511.8888888888889" r="8" fill="#f8c5c5" stroke="#17324d" stroke-width="2"/>
<text x="213" y="516.8888888888889" class="small" text-anchor="start">5V</text>
<circle cx="290" cy="553.0" r="8" fill="#263238" stroke="#17324d" stroke-width="2"/>
<text x="213" y="558.0" class="small" text-anchor="start">GND</text>
<rect x="370" y="105" width="265" height="210" rx="18" fill="#ffffff" stroke="#a8c0cc" stroke-width="3"/>
<text x="502.5" y="139" class="h2" text-anchor="middle">I2C LCD</text>
<rect x="483" y="155" width="148" height="84" rx="8" fill="#1d6b82" stroke="#17324d" stroke-width="3"/>
<rect x="499" y="175" width="116" height="42" rx="3" fill="#cfe7c7" stroke="#285a32" stroke-width="3"/>
<text x="557" y="202" class="tiny" text-anchor="middle">16 x 2</text>
<circle cx="370" cy="171.0" r="7" fill="#fff" stroke="#17324d" stroke-width="2"/>
<text x="388" y="176.0" class="small" text-anchor="start">SDA</text>
<circle cx="370" cy="209.0" r="7" fill="#fff" stroke="#17324d" stroke-width="2"/>
<text x="388" y="214.0" class="small" text-anchor="start">SCL</text>
<circle cx="370" cy="247.0" r="7" fill="#f8c5c5" stroke="#17324d" stroke-width="2"/>
<text x="388" y="252.0" class="small" text-anchor="start">VCC</text>
<circle cx="370" cy="285.0" r="7" fill="#263238" stroke="#17324d" stroke-width="2"/>
<text x="388" y="290.0" class="small" text-anchor="start">GND</text>
<rect x="370" y="340" width="265" height="205" rx="18" fill="#ffffff" stroke="#a8c0cc" stroke-width="3"/>
<text x="502.5" y="374" class="h2" text-anchor="middle">LDR Input</text>
<circle cx="557" cy="432" r="42" fill="#f3e6a1" stroke="#17324d" stroke-width="3"/>
<polyline points="501,394 534,417" class="wire" stroke="#f6a800" stroke-width="4" marker-end="url(#arrow)"/>
<polyline points="503,437 535,454" class="wire" stroke="#f6a800" stroke-width="4" marker-end="url(#arrow)"/>
<text x="557" y="438" class="label" text-anchor="middle">LDR</text>
<circle cx="370" cy="406.0" r="7" fill="#f8c5c5" stroke="#17324d" stroke-width="2"/>
<text x="388" y="411.0" class="small" text-anchor="start">5V</text>
<circle cx="370" cy="460.5" r="7" fill="#d7f3dd" stroke="#17324d" stroke-width="2"/>
<text x="388" y="465.5" class="small" text-anchor="start">A0</text>
<circle cx="370" cy="515.0" r="7" fill="#263238" stroke="#17324d" stroke-width="2"/>
<text x="388" y="520.0" class="small" text-anchor="start">GND</text>
<rect x="675" y="105" width="265" height="235" rx="18" fill="#ffffff" stroke="#a8c0cc" stroke-width="3"/>
<text x="807.5" y="139" class="h2" text-anchor="middle">RGB Status LED</text>
<circle cx="840" cy="197" r="27" fill="#ef5350" stroke="#17324d" stroke-width="2"/>
<circle cx="880" cy="197" r="27" fill="#43a047" stroke="#17324d" stroke-width="2"/>
<circle cx="860" cy="231" r="27" fill="#2979ff" stroke="#17324d" stroke-width="2"/>
<circle cx="675" cy="171.0" r="7" fill="#fff" stroke="#17324d" stroke-width="2"/>
<text x="693" y="176.0" class="small" text-anchor="start">R</text>
<circle cx="675" cy="217.33333333333334" r="7" fill="#fff" stroke="#17324d" stroke-width="2"/>
<text x="693" y="222.33333333333334" class="small" text-anchor="start">G</text>
<circle cx="675" cy="263.6666666666667" r="7" fill="#fff" stroke="#17324d" stroke-width="2"/>
<text x="693" y="268.6666666666667" class="small" text-anchor="start">B</text>
<circle cx="675" cy="310.0" r="7" fill="#263238" stroke="#17324d" stroke-width="2"/>
<text x="693" y="315.0" class="small" text-anchor="start">GND</text>
<rect x="675" y="370" width="265" height="190" rx="18" fill="#ffffff" stroke="#a8c0cc" stroke-width="3"/>
<text x="807.5" y="404" class="h2" text-anchor="middle">Alert Buzzer</text>
<circle cx="862" cy="462" r="42" fill="#dcd5fa" stroke="#4d3aa3" stroke-width="4"/>
<circle cx="862" cy="462" r="16" fill="#4d3aa3"/>
<polyline points="904,442 927,427" class="wire" stroke="#7556d8" stroke-width="3"/>
<polyline points="910,462 937,462" class="wire" stroke="#7556d8" stroke-width="3"/>
<circle cx="675" cy="436.0" r="7" fill="#fff" stroke="#17324d" stroke-width="2"/>
<text x="693" y="441.0" class="small" text-anchor="start">D7</text>
<circle cx="675" cy="530.0" r="7" fill="#263238" stroke="#17324d" stroke-width="2"/>
<text x="693" y="535.0" class="small" text-anchor="start">GND</text>
<rect x="955" y="230" width="200" height="240" rx="18" fill="#ffffff" stroke="#a8c0cc" stroke-width="3"/>
<text x="1055.0" y="264" class="h2" text-anchor="middle">Pointer Servo</text>
<rect x="1019" y="284" width="116" height="76" rx="10" fill="#4aa3d8" stroke="#17324d" stroke-width="3"/>
<circle cx="1077" cy="322" r="24" fill="#d9e4ea" stroke="#17324d" stroke-width="3"/>
<polyline points="1077,322 1135,290" class="wire" stroke="#17324d" stroke-width="7"/>
<circle cx="955" cy="296.0" r="7" fill="#fff" stroke="#17324d" stroke-width="2"/>
<text x="973" y="301.0" class="small" text-anchor="start">SIGNAL</text>
<circle cx="955" cy="368.0" r="7" fill="#f8c5c5" stroke="#17324d" stroke-width="2"/>
<text x="973" y="373.0" class="small" text-anchor="start">5V</text>
<circle cx="955" cy="440.0" r="7" fill="#263238" stroke="#17324d" stroke-width="2"/>
<text x="973" y="445.0" class="small" text-anchor="start">GND</text>
<polyline points="290,429.6666666666667 330.0,408.6666666666667 330.0,150.0 370,171.0" class="wire" stroke="#2374d8" stroke-width="5"/>
<polyline points="290,470.7777777777778 330.0,456.7777777777778 330.0,195.0 370,209.0" class="wire" stroke="#7556d8" stroke-width="5"/>
<polyline points="290,511.8888888888889 330.0,504.8888888888889 330.0,240.0 370,247.0" class="wire" stroke="#e53935" stroke-width="5"/>
<polyline points="290,553.0 330.0,553.0 330.0,285.0 370,285.0" class="wire" stroke="#263238" stroke-width="5"/>
<polyline points="290,511.8888888888889 330.0,518.8888888888889 330.0,413.0 370,406.0" class="wire" stroke="#e53935" stroke-width="5"/>
<polyline points="290,183.0 330.0,197.0 330.0,474.5 370,460.5" class="wire" stroke="#2e9d55" stroke-width="5"/>
<text x="338.0" y="330.75" class="tiny" text-anchor="start">light</text>
<polyline points="290,553.0 330.0,574.0 330.0,536.0 370,515.0" class="wire" stroke="#263238" stroke-width="5"/>
<polyline points="290,224.11111111111111 482.5,203.11111111111111 482.5,150.0 675,171.0" class="wire" stroke="#e53935" stroke-width="5"/>
<text x="490.5" y="171.55555555555554" class="tiny" text-anchor="start">red</text>
<polyline points="290,265.22222222222223 482.5,251.22222222222223 482.5,203.33333333333334 675,217.33333333333334" class="wire" stroke="#2e9d55" stroke-width="5"/>
<text x="490.5" y="222.27777777777777" class="tiny" text-anchor="start">green</text>
<polyline points="290,306.33333333333337 482.5,299.33333333333337 482.5,256.6666666666667 675,263.6666666666667" class="wire" stroke="#2374d8" stroke-width="5"/>
<text x="490.5" y="273.0" class="tiny" text-anchor="start">blue</text>
<polyline points="290,553.0 482.5,553.0 482.5,310.0 675,310.0" class="wire" stroke="#263238" stroke-width="5"/>
<polyline points="290,347.44444444444446 482.5,354.44444444444446 482.5,443.0 675,436.0" class="wire" stroke="#7556d8" stroke-width="5"/>
<text x="490.5" y="393.72222222222223" class="tiny" text-anchor="start">alert</text>
<polyline points="290,553.0 482.5,567.0 482.5,544.0 675,530.0" class="wire" stroke="#263238" stroke-width="5"/>
<polyline points="290,388.55555555555554 622.5,409.55555555555554 622.5,317.0 955,296.0" class="wire" stroke="#ef7d19" stroke-width="5"/>
<text x="630.5" y="358.27777777777777" class="tiny" text-anchor="start">angle</text>
<polyline points="290,511.8888888888889 622.5,490.8888888888889 622.5,347.0 955,368.0" class="wire" stroke="#e53935" stroke-width="5"/>
<polyline points="290,553.0 622.5,539.0 622.5,426.0 955,440.0" class="wire" stroke="#263238" stroke-width="5"/>
<rect x="850" y="500" width="300" height="114" rx="16" fill="#ffffff" stroke="#a8c0cc" stroke-width="3"/>
<text x="868" y="530" class="h2" text-anchor="start">Key notes</text>
<text x="870" y="562" class="small" text-anchor="start">Example team challenge layout</text>
<text x="870" y="587" class="small" text-anchor="start">At least 3 outputs plus 1 sensor</text>
<text x="870" y="612" class="small" text-anchor="start">Students may choose different pins</text>
  <text x="48" y="694" class="small">Use this as a design reference, then adapt to the team's idea.</text>
</svg>
